<?xml version="1.0" encoding="utf-8"?>
<!-- Generator: Adobe Illustrator 26.3.1, SVG Export Plug-In . SVG Version: 6.00 Build 0)  -->
<svg version="1.1" id="Livello_1" xmlns="http://www.w3.org/2000/svg" xmlns:xlink="http://www.w3.org/1999/xlink" x="0px" y="0px"
	 viewBox="0 0 109.98 30.83" style="enable-background:new 0 0 109.98 30.83;" xml:space="preserve">
<style type="text/css">
	.st0{fill:#FFFFFF;}
	.st1{fill:#CCCCCC;}
	.st2{fill:#1D1D1B;}
	.st3{fill:none;stroke:#1D1D1B;stroke-width:0.2328;stroke-miterlimit:10;}
	.st4{fill:#1A1A1A;}
</style>
<g>
	<path d="M2.55,17.62c0.58,0,1.17-0.01,1.75,0c0.2,0.01,0.37,0.15,0.45,0.33c0.21,0.44,0.38,0.9,0.39,1.4
		c0.01,0.63,0.07,1.26-0.11,1.89c-0.11,0.41-0.09,0.87-0.07,1.31c0.03,0.43,0.11,0.87,0.21,1.29c0.07,0.28,0.21,0.54,0.3,0.82
		c0.16,0.49,0.57,0.67,1.02,0.66c0.35-0.01,0.67-0.09,0.96-0.31c0.16-0.12,0.29-0.24,0.37-0.44c0.28-0.69,0.36-1.41,0.48-2.14
		c-0.2-0.76,0.21-1.55-0.13-2.3c-0.08-0.68-0.08-1.37,0.06-2.04c0.11-0.53,0.16-1.06-0.03-1.59c-0.08-0.23-0.08-0.48-0.01-0.72
		c0.06-0.19,0.07-0.38,0.01-0.57c-0.03-0.09-0.05-0.19-0.05-0.29c-0.03-0.53,0.15-1.04,0.02-1.59c-0.11-0.46-0.05-0.97-0.05-1.46
		c0-0.54-0.05-1.08,0.02-1.6c0.08-0.53,0.11-1.06,0.15-1.59c0.03-0.39,0.04-0.78-0.07-1.16c-0.1-0.33-0.07-0.67-0.08-1.02
		c-0.01-0.54,0.13-1.06,0.06-1.6C8.17,4.43,8.19,3.94,8.17,3.45C8.13,2.57,8.24,1.7,8.26,0.83c0.01-0.52,0.41-0.8,0.87-0.82
		c0.24-0.01,0.49-0.02,0.73,0c0.54,0.06,1.07,0.05,1.61,0.01C11.9,0,12.34,0.05,12.78,0.09c0.21,0.02,0.34,0.18,0.4,0.37
		c0.06,0.19,0.14,0.38,0.12,0.56c-0.04,0.29-0.06,0.57,0,0.87c0.11,0.57,0.19,1.16,0,1.73c0.1,0.48,0.06,0.95-0.06,1.43
		c-0.04,0.18-0.02,0.4,0.05,0.57c0.15,0.43,0.15,0.86,0.03,1.3c-0.12,0.44-0.12,0.86,0.01,1.3c0.07,0.23,0.04,0.48,0.05,0.72
		c0.01,0.54,0.01,1.07,0.01,1.61c0,0.15,0.02,0.3-0.02,0.44c-0.19,0.62-0.25,1.24-0.03,1.87c0.04,0.12-0.03,0.28-0.07,0.42
		c-0.11,0.48-0.13,0.97,0.03,1.44c0.15,0.43,0.17,0.89,0.06,1.3c-0.13,0.49,0.06,0.97-0.09,1.43c-0.03,0.09-0.03,0.2-0.01,0.29
		c0.21,0.97,0.17,1.93,0,2.9c-0.03,0.14-0.06,0.3-0.03,0.43c0.14,0.78-0.1,1.56-0.05,2.34c0.02,0.28-0.09,0.57-0.15,0.86
		c-0.06,0.29-0.15,0.57-0.17,0.86c-0.02,0.35-0.1,0.67-0.29,0.96c-0.08,0.12-0.17,0.26-0.19,0.4c-0.12,0.88-0.7,1.48-1.24,2.11
		c-0.16,0.18-0.34,0.34-0.51,0.52c-0.37,0.39-0.68,0.89-1.21,1.04c-0.7,0.2-1.36,0.54-2.12,0.49c-0.24-0.02-0.49,0.03-0.72,0.08
		c-0.25,0.04-0.48,0.04-0.72-0.02c-0.28-0.07-0.58-0.08-0.86-0.16c-0.33-0.08-0.67-0.16-0.97-0.32c-0.86-0.47-1.66-1.02-2.27-1.81
		c-0.54-0.7-0.96-1.44-1.22-2.3c-0.25-0.81-0.28-1.62-0.35-2.45c-0.04-0.53,0.07-1.07-0.13-1.6c-0.05-0.13-0.04-0.3,0-0.43
		c0.17-0.57,0.16-1.17,0.1-1.74c-0.06-0.59,0.05-1.16,0.07-1.75c0.01-0.29,0.28-0.52,0.6-0.53C1.38,17.61,1.97,17.62,2.55,17.62
		C2.55,17.62,2.55,17.62,2.55,17.62z"/>
	<path d="M18.09,19.85c0.71,0,1.14,0,1.57,0c0.24,0,0.49,0.02,0.71-0.05c0.66-0.21,1.31-0.15,1.97,0c0.18,0.04,0.38,0.04,0.56,0.08
		c0.13,0.03,0.25,0.1,0.31,0.26c0.17,0.5,0.27,0.99,0.15,1.53c-0.07,0.31,0.09,0.66,0.06,0.98c-0.07,0.63,0.06,1.23,0.07,1.85
		c0.01,0.61,0.39,0.94,0.86,1.2c0.07,0.04,0.18,0.04,0.27,0.02c0.19-0.04,0.37-0.1,0.55-0.16c0.19-0.07,0.32-0.21,0.4-0.38
		c0.26-0.57,0.41-1.14,0.39-1.79c-0.02-0.81-0.06-1.61-0.31-2.39c-0.1-0.32-0.27-0.59-0.54-0.82c-0.97-0.84-2-1.61-3.1-2.27
		c-0.25-0.14-0.5-0.29-0.71-0.47c-0.5-0.45-1.03-0.82-1.62-1.15c-0.49-0.27-0.91-0.68-1.36-1.02c-0.86-0.67-1.35-1.6-1.7-2.59
		c-0.26-0.76-0.46-1.55-0.57-2.34c-0.1-0.75-0.06-1.52-0.07-2.28c-0.01-1.1,0.22-2.17,0.53-3.22c0.22-0.74,0.96-1.71,1.57-2.15
		c0.15-0.11,0.33-0.19,0.48-0.31c1.19-1,0.85-0.63,2.14-1.04c0.58-0.19,1.21-0.25,1.8-0.43c0.42-0.13,0.84,0.04,1.27-0.09
		c0.41-0.12,0.84-0.05,1.26,0.1c0.21,0.08,0.47,0.07,0.71,0.06c0.73-0.02,1.42,0.14,2.1,0.37c0.13,0.05,0.27,0.1,0.4,0.15
		c0.36,0.13,0.79,0.02,1.1,0.27c0.66,0.54,1.43,0.97,1.95,1.66c0.43,0.57,0.78,1.21,0.96,1.9c0.1,0.36,0.14,0.74,0.29,1.1
		c0.05,0.13,0.06,0.28,0.06,0.42c0.02,0.95,0.03,1.9,0.04,2.86c0,0.05-0.03,0.09-0.03,0.14c-0.01,0.1-0.17,0.31-0.25,0.32
		c-0.71,0.07-1.42,0.14-2.13,0.21c-0.4-0.25-0.84,0.01-1.26-0.08c-0.47-0.1-0.94-0.07-1.42-0.01c-0.61,0.08-1.23-0.04-1.83-0.15
		c-0.09-0.02-0.24-0.22-0.25-0.32c-0.01-0.24-0.03-0.47-0.03-0.71c-0.01-0.76-0.01-1.52-0.02-2.28c0-0.14-0.04-0.28-0.07-0.42
		c-0.04-0.18-0.33-0.44-0.51-0.45c-0.24-0.01-0.47-0.02-0.71-0.01c-0.26,0.01-0.59,0.25-0.65,0.49c-0.17,0.69-0.35,1.4-0.27,2.11
		c0.1,0.91,0.38,1.77,1.18,2.34c0.62,0.44,1.17,0.98,1.88,1.28c0.71,0.56,1.54,0.94,2.23,1.53c0.25,0.22,0.51,0.42,0.83,0.55
		c0.13,0.05,0.25,0.14,0.35,0.24c0.26,0.28,0.55,0.51,0.89,0.7c0.38,0.21,0.64,0.56,0.91,0.9c0.44,0.57,0.77,1.2,1.09,1.84
		c0.19,0.38,0.33,0.79,0.32,1.23c-0.01,0.24,0.02,0.48,0.07,0.71c0.34,1.7,0.32,3.41,0.17,5.11c-0.08,0.9-0.34,1.77-0.78,2.58
		c-0.16,0.3-0.34,0.57-0.59,0.8c-0.87,0.82-1.5,1.3-2.6,1.72c-0.93,0.35-1.87,0.7-2.89,0.69c-0.71-0.01-1.43,0.01-2.14,0
		c-0.33,0-0.68,0.04-0.99-0.06c-0.69-0.2-1.41-0.2-2.08-0.47c-0.58-0.23-1.12-0.5-1.66-0.81c-0.2-0.12-0.37-0.31-0.59-0.4
		c-0.6-0.26-0.96-0.76-1.35-1.23c-0.25-0.3-0.41-0.64-0.51-1.01c-0.11-0.41-0.21-0.83-0.33-1.24c-0.16-0.55-0.28-1.1-0.29-1.68
		c-0.01-1.05-0.04-2.09-0.05-3.14c0-0.23,0.06-0.47,0.1-0.7c0.01-0.1,0.22-0.26,0.31-0.26C17.24,19.8,17.81,19.84,18.09,19.85z"/>
	<path d="M73.92,15.43c-0.26,2.77-0.31,3.75-1.55,6.37c-0.32,0.67-0.61,1.32-1.18,1.82c-0.14,0.13-0.26,0.3-0.35,0.47
		c-0.38,0.7-1.01,1.18-1.55,1.73c-0.51,0.51-1.08,0.98-1.73,1.33c-0.43,0.23-0.84,0.5-1.25,0.76c-1.66,1.07-3.46,1.76-5.39,2.16
		c-0.62,0.13-1.23,0.33-1.86,0.4c-0.82,0.1-1.65,0.13-2.48,0.16c-0.49,0.02-0.97-0.04-1.44,0.15c-0.24,0.09-0.49,0.04-0.72-0.04
		c-0.34-0.11-0.67-0.12-1.01-0.04c-0.53,0.13-1.06,0.13-1.58-0.07c-0.88,0.03-1.71-0.42-2.6-0.33c-0.1,0.01-0.2-0.01-0.29-0.04
		c-1.34-0.44-2.74-0.7-4.06-1.19c-0.14-0.05-0.27-0.11-0.4-0.19c-0.46-0.28-0.91-0.56-1.45-0.69c-0.49-0.12-0.75-0.62-1.21-0.8
		c-0.84-0.33-1.48-0.91-2.13-1.51c-0.39-0.36-0.72-0.8-1.19-1.06c-0.38-0.5-0.81-0.98-1.14-1.52c-0.53-0.88-1.01-1.78-1.39-2.73
		c-0.07-0.18-0.12-0.37-0.17-0.56c-0.09-0.33-0.15-0.67-0.26-0.99c-0.16-0.46-0.33-0.91-0.31-1.41c0.01-0.19-0.08-0.38-0.14-0.56
		c-0.12-0.38-0.13-0.77-0.08-1.16c0.11-0.77,0.19-1.54,0.15-2.33c-0.02-0.44,0.09-0.86,0.19-1.29c0.19-0.76,0.44-1.49,0.68-2.23
		c0.52-1.57,1.42-2.87,2.52-4.07c0.43-0.47,0.89-0.9,1.35-1.34c0.14-0.14,0.28-0.28,0.45-0.38c0.95-0.59,1.84-1.28,2.83-1.82
		c0.38-0.21,0.83-0.31,1.19-0.54c0.38-0.24,0.79-0.36,1.22-0.46c0.57-0.13,1.12-0.34,1.68-0.5c1.01-0.3,3.19-0.73,4.16-0.83
		c0.1-0.01,0.19-0.02,0.29-0.02c1.56-0.02,3.12-0.04,4.68-0.06c0.05,0,0.1,0,0.14,0c0.78,0.06,1.52,0.33,2.31,0.34
		c0.78,0.01,1.54,0.19,2.28,0.44c0.18,0.06,0.38,0.09,0.57,0.12c0.67,0.12,1.33,0.28,1.93,0.64c0.04,0.02,0.08,0.06,0.13,0.07
		c0.79,0.14,1.42,0.62,2.11,0.96c0.48,0.24,0.98,0.44,1.38,0.81c0.07,0.07,0.16,0.12,0.25,0.15c0.95,0.36,1.61,1.08,2.26,1.82
		c0.19,0.22,0.37,0.46,0.59,0.65c0.72,0.61,1.22,1.38,1.65,2.2c0.09,0.17,0.17,0.35,0.29,0.51c0.7,0.91,0.89,2.04,1.27,3.09
		c0.02,0.05,0.03,0.1,0.03,0.14c0.05,1.12,0.13,2.24,0.32,3.34C73.92,15.36,73.92,15.41,73.92,15.43z M50.48,15.76
		c0.01,0,0.02,0,0.03,0c0,0.39-0.01,0.78,0,1.17c0.03,1.08,0.03,1.08,0.33,2c0.29,0.89,0.4,1.09,1,1.75
		c0.37,0.41,0.78,0.73,1.37,0.75c0.18,0.01,0.36,0.13,0.55,0.19c0.09,0.03,0.2,0.06,0.28,0.03c0.57-0.19,1.16-0.12,1.73-0.22
		c0.48-0.08,0.96-0.25,1.27-0.65c0.73-0.94,1.27-1.96,1.35-3.18c0.02-0.29,0.01-0.58,0.02-0.88c0.01-0.44-0.07-0.9,0.04-1.31
		c0.16-0.64,0.09-1.25-0.05-1.87c-0.03-0.14-0.06-0.29-0.05-0.44c0.04-0.65-0.23-1.24-0.39-1.84c-0.1-0.38-0.32-0.69-0.61-0.97
		c-1.31-1.27-0.99-1.06-2.82-1.18c-0.15-0.01-0.29,0.01-0.44,0c-0.66-0.03-1.22,0.32-1.83,0.47c-0.09,0.02-0.17,0.1-0.23,0.17
		c-0.67,0.72-1.32,1.44-1.29,2.53c0.01,0.24-0.09,0.48-0.13,0.71c-0.1,0.53-0.18,1.05-0.13,1.6C50.5,14.98,50.48,15.37,50.48,15.76z
		"/>
	<path d="M92.62,0.05c-0.03,0,0.07,0,0.17,0c1.86-0.1,3.7,0.16,5.54,0.34c0.58,0.06,1.15,0.18,1.72,0.31
		c0.76,0.17,1.51,0.36,2.26,0.58c0.46,0.14,0.94,0.24,1.34,0.56c0.18,0.15,0.42,0.26,0.64,0.33c1.1,0.34,1.93,1.12,2.83,1.77
		c0.08,0.06,0.15,0.13,0.21,0.2c0.66,0.84,1.38,1.64,1.82,2.63c0.06,0.14,0.01,0.27-0.17,0.33c-0.95,0.37-1.9,0.75-2.88,1.05
		c-0.93,0.29-1.84,0.64-2.77,0.95c-0.6,0.2-1.21,0.37-1.82,0.56c-0.22,0.07-0.38-0.02-0.51-0.18c-0.28-0.34-0.49-0.76-0.82-1.02
		c-0.33-0.26-0.81-0.34-1.18-0.57c-0.46-0.29-0.95-0.5-1.47-0.63c-0.14-0.04-0.28-0.12-0.42-0.12c-0.79,0-1.54-0.26-2.32-0.26
		s-1.55-0.15-2.34-0.08c-0.49,0.04-0.98,0.02-1.47,0c-0.59-0.02-1.17,0-1.73,0.17c-0.6-0.17-1.16,0.1-1.73,0.18
		c-0.64,0.09-1.2,0.39-1.71,0.78c-0.5,0.37-0.66,1.14-0.39,1.71c0.32,0.67,0.83,1.06,1.54,1.24c0.71,0.19,1.45,0.23,2.14,0.5
		c0.13,0.05,0.29,0.03,0.43,0.03c0.78,0.02,1.56,0.04,2.33,0.22c0.37,0.08,0.77-0.1,1.15,0.07c0.88-0.05,1.73,0.19,2.6,0.24
		c0.29,0.01,0.58,0.09,0.87,0.09c0.68,0,1.37-0.04,2.01,0.26c0.58,0.05,1.16,0.05,1.73,0.21c0.33,0.09,0.69,0.07,0.99,0.21
		c0.41,0.18,0.85,0.23,1.27,0.35c0.6,0.17,1.24,0.22,1.78,0.62c0.26,0.2,0.66,0.09,0.96,0.32c0.77,0.59,1.74,0.89,2.45,1.58
		c0.1,0.1,0.25,0.17,0.34,0.28c0.64,0.8,1.29,1.61,1.58,2.61c0.13,0.46,0.31,0.93,0.35,1.41c0.06,0.63,0.02,1.27,0,1.9
		c-0.03,0.68-0.07,1.36-0.29,2.02c-0.19,0.56-0.42,1.08-0.75,1.58c-0.82,1.24-1.91,2.2-3.13,3.03c-0.98,0.3-1.81,0.94-2.84,1.14
		c-0.77,0.15-1.52,0.37-2.27,0.59c-0.33,0.1-0.66,0.16-1,0.16c-0.34,0-0.68,0.03-1.01,0.15c-0.13,0.05-0.28,0.08-0.43,0.09
		c-1.16,0.05-2.32,0.23-3.49,0.13c-0.24-0.02-0.49,0.01-0.72,0.06c-0.2,0.04-0.38,0.03-0.57-0.01c-0.19-0.04-0.4-0.1-0.58-0.07
		c-0.88,0.18-1.75-0.03-2.62-0.02c-0.83,0.01-1.66-0.04-2.49-0.08c-0.19-0.01-0.39-0.04-0.57-0.1c-0.75-0.2-1.52-0.32-2.29-0.47
		c-0.61-0.12-1.23-0.27-1.82-0.5c-0.59-0.23-1.2-0.4-1.8-0.61c-0.28-0.1-0.57-0.18-0.81-0.34c-0.65-0.42-1.35-0.77-1.96-1.25
		c-0.5-0.4-0.98-0.8-1.34-1.34c-0.13-0.2-0.29-0.4-0.46-0.57c-0.66-0.62-1.03-1.41-1.32-2.25c-0.07-0.18-0.12-0.37-0.18-0.56
		c-0.1-0.32-0.04-0.5,0.22-0.58c0.6-0.19,1.2-0.4,1.82-0.55c0.33-0.08,0.66-0.1,0.99-0.2c0.42-0.12,0.89-0.06,1.3-0.19
		c0.42-0.13,0.84-0.23,1.27-0.3c0.48-0.07,0.94-0.23,1.42-0.35c0.19-0.05,0.38-0.1,0.57-0.13c0.26-0.04,0.52,0.03,0.63,0.27
		c0.25,0.54,0.69,0.94,0.99,1.45c0.26,0.44,0.61,0.75,1.1,0.9c0.05,0.01,0.1,0.02,0.14,0.05c0.71,0.59,1.56,0.76,2.44,0.85
		c0.63,0.07,1.22,0.34,1.86,0.37c0.19,0.01,0.37,0.04,0.57,0.01c0.19-0.03,0.39-0.04,0.58-0.02c2.03,0.24,2.77,0.25,4.95,0.05
		c0.79,0.12,1.55-0.06,2.3-0.27c0.48,0.14,0.84-0.12,1.22-0.34c0.25-0.14,0.54-0.23,0.81-0.33c0.45-0.16,0.71-0.51,0.91-0.91
		c0.09-0.18,0.1-0.37,0.04-0.57c-0.14-0.42-0.36-0.8-0.64-1.15c-0.15-0.2-0.34-0.36-0.58-0.43c-0.65-0.19-1.26-0.49-1.96-0.56
		c-0.68-0.07-1.34-0.22-2.03-0.26c-0.53-0.03-1.06-0.19-1.59-0.24c-0.53-0.05-1.07-0.07-1.6-0.19c-0.28-0.06-0.58-0.08-0.87-0.09
		c-0.59-0.01-1.16-0.07-1.74-0.2c-0.57-0.12-1.16-0.12-1.75-0.15c-0.49-0.03-0.97-0.03-1.45-0.2c-0.18-0.06-0.38-0.09-0.57-0.08
		c-0.41,0.02-0.76-0.13-1.13-0.24c-0.98-0.29-1.98-0.52-2.94-0.86c-1.35-0.48-2.6-1.1-3.63-2.11c-0.21-0.21-0.42-0.4-0.58-0.65
		c-0.13-0.2-0.27-0.41-0.44-0.58c-0.51-0.5-0.72-1.15-0.96-1.79c-0.08-0.22-0.07-0.48-0.08-0.72c-0.03-0.63,0.01-1.27-0.12-1.9
		c-0.03-0.14-0.04-0.3,0-0.43c0.11-0.38,0.09-0.78,0.15-1.16c0.07-0.38,0.25-0.74,0.34-1.12c0.25-1.04,0.95-1.79,1.58-2.59
		c0.82-0.61,1.5-1.39,2.48-1.78c0.22-0.09,0.43-0.23,0.61-0.39c0.42-0.37,0.94-0.54,1.45-0.66c0.8-0.19,1.62-0.33,2.4-0.63
		c0.73-0.01,1.42-0.38,2.16-0.32c0.1,0.01,0.2-0.01,0.29-0.02C90.32-0.01,90.57-0.02,92.62,0.05z"/>
</g>
</svg>
