<svg xmlns="http://www.w3.org/2000/svg" xmlns:xlink="http://www.w3.org/1999/xlink" viewBox="0 0 475.21 362.27"><defs><linearGradient id="Sfumatura_senza_nome_21" x1="246.68" y1="-14.02" x2="246.68" y2="345.75" gradientUnits="userSpaceOnUse"><stop offset="0" stop-color="#c03"/><stop offset="0.6" stop-color="#f4ef21"/><stop offset="1" stop-color="#c03"/></linearGradient></defs><g id="Livello_2" data-name="Livello 2"><g id="Livello_1-2" data-name="Livello 1"><path d="M78.11,227.82l-10.89.78A438.11,438.11,0,0,1,57,285.49l-10.68,1.43a445.6,445.6,0,0,0,10.25-57.56l-10.89.78q1.07-9.66,1.74-19.39l32.46-1.64Q79.18,218.49,78.11,227.82Zm20.29,49a18.72,18.72,0,0,1-10.75,5.74c-3.89.52-6.78-.34-8.68-2.61s-3-6.17-3.33-11.72.28-12.7,1.68-21.47c2-12.21,4.55-21.94,8.34-29s8.35-10.64,14-10.92,10,2.79,12.47,9.14,3,15.3,1.13,26.86a81.9,81.9,0,0,1-6,20.81A44.32,44.32,0,0,1,98.4,276.83Zm4.2-33.29c1.11-6.85,1.1-11.84.19-14.93S100.27,224,98,224.2s-4.06,1.91-5.76,5.27S89.2,238.35,88,245.88s-1.62,12.73-1,15.82,2,4.48,4.28,4.22,4.42-2,6.32-5.3S101.27,251.7,102.6,243.54Zm-84.16,73.9L27.52,316A386.28,386.28,0,0,1,10.33,361l8.89-1.84a380.36,380.36,0,0,0,17.2-44.66l9.07-1.47Q47.89,305.58,50,298l-27,4Q20.85,309.76,18.44,317.44Zm47.7-2-9.73,1.64q3.57-10.35,6.57-21l-8.9,1.3a381.66,381.66,0,0,1-21.71,59.09l8.9-1.84q5.29-11.29,9.87-23.12l9.72-1.78Q56.3,341.42,51,352.62l8.94-1.85a364.38,364.38,0,0,0,21.71-57.43l-8.94,1.31Q69.7,305.18,66.14,315.44ZM85,324.29l13.85-2.52q2.3-5.65,4.38-11.4l-13.84,2.35c1.08-3,2.14-6.07,3.15-9.13l14.93-2.39q2-6.06,3.87-12.21l-23.84,3.49a361,361,0,0,1-21.72,57.07l24.28-5q3-6,5.71-12.21l-15.36,3Q82.84,329.86,85,324.29ZM62.76,185.78l29.87-.7c7.91-.18,12.31-7.88,11.8-23.34C102.46,107.17,89.88,52,66.69,5.53l-24-4.28C62.49,42,74.56,89.36,78.89,137.12c0,.3-.06.59-.18.59l-5.42-.17c-.11,0-.26-.31-.28-.61a434.13,434.13,0,0,0-6.89-47.28l-24-2a461.9,461.9,0,0,1,8.43,73.91C51.07,178,54.75,186,62.76,185.78Zm109-2.55c7.91-.18,12.3-7.18,11.8-21.21a341,341,0,0,0-8.44-63.2c-3.2-13.74-9.42-20.69-17.33-21.58l-17.64-1.92c-.12,0-.31-.29-.39-.56q-2.88-10-6.35-19.83c-.09-.26-.07-.51,0-.49l5.42.72c.11,0,.32.29.41.55q1.69,4.74,3.24,9.54l24,2.92c-3.3-10-7.06-19.71-11.3-29.21-5.87-13.15-13.49-20-21.39-21.46l-29.88-5.33c-8-1.38-8.47,4.4-2.6,18.37a356.68,356.68,0,0,1,19.91,63.75c3.16,14.87,8.13,22.74,16.14,23.18l17.65,1c.11,0,.27.29.31.56Q157,129.27,158,139.6c0,.27-.06.54-.18.54l-5.42-.17c-.12,0-.26-.28-.29-.55q-.51-5.21-1.18-10.38L127,128c1.39,11.21,2.3,22.52,2.72,33.85.51,15,4.19,22.29,12.2,22.1Zm36.94-21.12c-1.69-41-11.14-82.37-28.34-119.21-5.87-12.78-5.41-18,2.6-16.64l29.87,5.33c7.91,1.45,15.52,7.77,21.39,19.73,17.21,34.43,26.65,72.93,28.34,111,.51,12.6-3.89,18.9-11.8,19.08l-29.87.7C212.87,182.27,209.19,175.68,208.69,162.11Zm22.44-20.21c0,.25.17.5.28.5l5.42.17c.12,0,.21-.24.18-.49a293.85,293.85,0,0,0-18.73-75.87c-.09-.23-.3-.48-.41-.49L212.45,65c-.12,0-.14.2,0,.44A298.24,298.24,0,0,1,231.13,141.9Zm68.75,38.33,29.88-.7c7.91-.18,12.3-5.78,11.79-16.95a222,222,0,0,0-8.44-50.48c-3.2-11-9.41-16.73-17.32-17.61l-17.65-1.93c-.11,0-.3-.24-.38-.45q-2.88-8.17-6.36-16.18c-.09-.21-.06-.4.05-.39l5.42.73c.12,0,.33.24.42.45,1.12,2.57,2.2,5.17,3.24,7.77l24,2.93a234.92,234.92,0,0,0-11.31-23.74c-5.87-10.77-13.48-16.55-21.39-18L262,40.35c-8-1.39-8.47,3.32-2.6,14.9a261.22,261.22,0,0,1,19.9,52.32c3.16,12.11,8.14,18.55,16.15,19l17.64,1c.12,0,.28.23.32.44q1.62,8.23,2.65,16.55c0,.21-.06.43-.17.42l-5.42-.16c-.12,0-.26-.23-.29-.45-.34-2.79-.74-5.58-1.18-8.36L285,135a257.56,257.56,0,0,1,2.73,27.43C288.2,174.53,291.88,180.42,299.88,180.23ZM137.17,213.79c-4.27,44.2-16.07,88.3-35.41,126.89l24-4.92a332.88,332.88,0,0,0,23.42-60.35l20.76-2.84a336.74,336.74,0,0,0,8.27-35.16l-20.76,1.93q.75-4.2,1.38-8.43c0-.23.19-.47.3-.48l20.76-1.7A345.68,345.68,0,0,0,183.53,193l-33,1.2C142.55,194.45,138.35,201.27,137.17,213.79Zm58.91,78.55c-.08.2-.27.42-.39.44l-5.42.91c-.12,0-.15-.17-.07-.37a319.36,319.36,0,0,0,21.93-101.39l-24,.87c-2.08,41.71-11.76,83.9-29,121.63-4.94,11-3.76,15.23,4.24,13.62l29.87-6.13c7.92-1.65,14.82-7.26,19.76-17.56,17.27-35.35,26.94-74.71,29-113.51l-24,.87A314.74,314.74,0,0,1,196.08,292.34Zm79.37-102.71-24,.87q-.24,4.2-.58,8.39l-5.89.28a294,294,0,0,1-4.51,32.45l5.88-.54a289.41,289.41,0,0,1-23.93,71.51c-4.94,10.18-3.76,14.09,4.23,12.48l29.88-6.13c7.92-1.65,14.81-6.91,19.75-16.42a258.41,258.41,0,0,0,22.17-58.76l-23.88,2.49a271.83,271.83,0,0,1-15.06,45.49.76.76,0,0,1-.4.41l-5.53.93c-.12,0-.15-.15-.07-.34a275.06,275.06,0,0,0,16.83-53.89l29.87-2.78a249.73,249.73,0,0,0,4.52-29.77l-29.87,1.43Q275.22,193.7,275.45,189.63ZM319,271.8a.76.76,0,0,1-.4.38l-5.42.91c-.11,0-.15-.14-.06-.31a234.78,234.78,0,0,0,21.92-85.31l-24,.87a251.61,251.61,0,0,1-29,103.11c-4.94,9.43-3.76,13,4.23,11.39l29.87-6.12c7.93-1.65,14.82-6.58,19.76-15.34a219.25,219.25,0,0,0,29-95l-24,.87A231.11,231.11,0,0,1,319,271.8Zm91.46-30.18A211,211,0,0,1,387.92,282l-24,4.92a220.72,220.72,0,0,0,21.71-39.85c.06-.16,0-.3-.1-.29l-5.65.81A222.8,222.8,0,0,1,358,288.13l-24,4.92a218.91,218.91,0,0,0,36.78-106.88l41.87-1.52c7.92-.3,11.7,3.75,10.5,12.09a176.35,176.35,0,0,1-6.77,28.74c-1.56,4.79-4.54,7.64-8.68,8.75C411.48,234.49,412.5,236.88,410.49,241.62ZM397,211.24c0-.16-.05-.31-.17-.3l-5.65.46q-1.65,7.84-4,15.62l5.65-.61a.55.55,0,0,0,.33-.35Q395.39,218.68,397,211.24Zm41.26,30.3q-2.7,5.7-5.85,11.32c-.08.14,0,.27.07.25l5.42-.91a.72.72,0,0,0,.39-.33c1-1.81,2-3.62,3-5.44l24-3.78a187.52,187.52,0,0,1-10.05,16.43,30.81,30.81,0,0,1-19.76,13.18l-29.87,6.13c-8,1.62-9.18-1.29-4.24-9.24A187.53,187.53,0,0,0,429,196.4c1.2-8.25,5.38-12.54,13.37-12.83l29.88-1.08c7.92-.3,11.81,3.28,10.61,10.7a151.25,151.25,0,0,1-14.7,44ZM447,219.82l5.88-.63q2.12-6.42,3.66-12.86c0-.15-.05-.28-.16-.27l-5.42.44a.43.43,0,0,0-.3.31Q449.07,213.33,447,219.82Z" transform="translate(-9.08)" style="fill:url(#Sfumatura_senza_nome_21)"/><path d="M78.11,227.82l-10.89.78A438.11,438.11,0,0,1,57,285.49l-10.68,1.43a445.6,445.6,0,0,0,10.25-57.56l-10.89.78q1.07-9.66,1.74-19.39l32.46-1.64Q79.18,218.49,78.11,227.82Zm20.29,49a18.72,18.72,0,0,1-10.75,5.74c-3.89.52-6.78-.34-8.68-2.61s-3-6.17-3.33-11.72.28-12.7,1.68-21.47c2-12.21,4.55-21.94,8.34-29s8.35-10.64,14-10.92,10,2.79,12.47,9.14,3,15.3,1.13,26.86a81.9,81.9,0,0,1-6,20.81A44.32,44.32,0,0,1,98.4,276.83Zm4.2-33.29c1.11-6.85,1.1-11.84.19-14.93S100.27,224,98,224.2s-4.06,1.91-5.76,5.27S89.2,238.35,88,245.88s-1.62,12.73-1,15.82,2,4.48,4.28,4.22,4.42-2,6.32-5.3S101.27,251.7,102.6,243.54Zm-84.16,73.9L27.52,316A386.28,386.28,0,0,1,10.33,361l8.89-1.84a380.36,380.36,0,0,0,17.2-44.66l9.07-1.47Q47.89,305.58,50,298l-27,4Q20.85,309.76,18.44,317.44Zm47.7-2-9.73,1.64q3.57-10.35,6.57-21l-8.9,1.3a381.66,381.66,0,0,1-21.71,59.09l8.9-1.84q5.29-11.29,9.87-23.12l9.72-1.78Q56.3,341.42,51,352.62l8.94-1.85a364.38,364.38,0,0,0,21.71-57.43l-8.94,1.31Q69.7,305.18,66.14,315.44ZM85,324.29l13.85-2.52q2.3-5.65,4.38-11.4l-13.84,2.35c1.08-3,2.14-6.07,3.15-9.13l14.93-2.39q2-6.06,3.87-12.21l-23.84,3.49a361,361,0,0,1-21.72,57.07l24.28-5q3-6,5.71-12.21l-15.36,3Q82.84,329.86,85,324.29ZM62.76,185.78l29.87-.7c7.91-.18,12.31-7.88,11.8-23.34C102.46,107.17,89.88,52,66.69,5.53l-24-4.28C62.49,42,74.56,89.36,78.89,137.12c0,.3-.06.59-.18.59l-5.42-.17c-.11,0-.26-.31-.28-.61a434.13,434.13,0,0,0-6.89-47.28l-24-2a461.9,461.9,0,0,1,8.43,73.91C51.07,178,54.75,186,62.76,185.78Zm109-2.55c7.91-.18,12.3-7.18,11.8-21.21a341,341,0,0,0-8.44-63.2c-3.2-13.74-9.42-20.69-17.33-21.58l-17.64-1.92c-.12,0-.31-.29-.39-.56q-2.88-10-6.35-19.83c-.09-.26-.07-.51,0-.49l5.42.72c.11,0,.32.29.41.55q1.69,4.74,3.24,9.54l24,2.92c-3.3-10-7.06-19.71-11.3-29.21-5.87-13.15-13.49-20-21.39-21.46l-29.88-5.33c-8-1.38-8.47,4.4-2.6,18.37a356.68,356.68,0,0,1,19.91,63.75c3.16,14.87,8.13,22.74,16.14,23.18l17.65,1c.11,0,.27.29.31.56Q157,129.27,158,139.6c0,.27-.06.54-.18.54l-5.42-.17c-.12,0-.26-.28-.29-.55q-.51-5.21-1.18-10.38L127,128c1.39,11.21,2.3,22.52,2.72,33.85.51,15,4.19,22.29,12.2,22.1Zm36.94-21.12c-1.69-41-11.14-82.37-28.34-119.21-5.87-12.78-5.41-18,2.6-16.64l29.87,5.33c7.91,1.45,15.52,7.77,21.39,19.73,17.21,34.43,26.65,72.93,28.34,111,.51,12.6-3.89,18.9-11.8,19.08l-29.87.7C212.87,182.27,209.19,175.68,208.69,162.11Zm22.44-20.21c0,.25.17.5.28.5l5.42.17c.12,0,.21-.24.18-.49a293.85,293.85,0,0,0-18.73-75.87c-.09-.23-.3-.48-.41-.49L212.45,65c-.12,0-.14.2,0,.44A298.24,298.24,0,0,1,231.13,141.9Zm68.75,38.33,29.88-.7c7.91-.18,12.3-5.78,11.79-16.95a222,222,0,0,0-8.44-50.48c-3.2-11-9.41-16.73-17.32-17.61l-17.65-1.93c-.11,0-.3-.24-.38-.45q-2.88-8.17-6.36-16.18c-.09-.21-.06-.4.05-.39l5.42.73c.12,0,.33.24.42.45,1.12,2.57,2.2,5.17,3.24,7.77l24,2.93a234.92,234.92,0,0,0-11.31-23.74c-5.87-10.77-13.48-16.55-21.39-18L262,40.35c-8-1.39-8.47,3.32-2.6,14.9a261.22,261.22,0,0,1,19.9,52.32c3.16,12.11,8.14,18.55,16.15,19l17.64,1c.12,0,.28.23.32.44q1.62,8.23,2.65,16.55c0,.21-.06.43-.17.42l-5.42-.16c-.12,0-.26-.23-.29-.45-.34-2.79-.74-5.58-1.18-8.36L285,135a257.56,257.56,0,0,1,2.73,27.43C288.2,174.53,291.88,180.42,299.88,180.23ZM137.17,213.79c-4.27,44.2-16.07,88.3-35.41,126.89l24-4.92a332.88,332.88,0,0,0,23.42-60.35l20.76-2.84a336.74,336.74,0,0,0,8.27-35.16l-20.76,1.93q.75-4.2,1.38-8.43c0-.23.19-.47.3-.48l20.76-1.7A345.68,345.68,0,0,0,183.53,193l-33,1.2C142.55,194.45,138.35,201.27,137.17,213.79Zm58.91,78.55c-.08.2-.27.42-.39.44l-5.42.91c-.12,0-.15-.17-.07-.37a319.36,319.36,0,0,0,21.93-101.39l-24,.87c-2.08,41.71-11.76,83.9-29,121.63-4.94,11-3.76,15.23,4.24,13.62l29.87-6.13c7.92-1.65,14.82-7.26,19.76-17.56,17.27-35.35,26.94-74.71,29-113.51l-24,.87A314.74,314.74,0,0,1,196.08,292.34Zm79.37-102.71-24,.87q-.24,4.2-.58,8.39l-5.89.28a294,294,0,0,1-4.51,32.45l5.88-.54a289.41,289.41,0,0,1-23.93,71.51c-4.94,10.18-3.76,14.09,4.23,12.48l29.88-6.13c7.92-1.65,14.81-6.91,19.75-16.42a258.41,258.41,0,0,0,22.17-58.76l-23.88,2.49a271.83,271.83,0,0,1-15.06,45.49.76.76,0,0,1-.4.41l-5.53.93c-.12,0-.15-.15-.07-.34a275.06,275.06,0,0,0,16.83-53.89l29.87-2.78a249.73,249.73,0,0,0,4.52-29.77l-29.87,1.43Q275.22,193.7,275.45,189.63ZM319,271.8a.76.76,0,0,1-.4.38l-5.42.91c-.11,0-.15-.14-.06-.31a234.78,234.78,0,0,0,21.92-85.31l-24,.87a251.61,251.61,0,0,1-29,103.11c-4.94,9.43-3.76,13,4.23,11.39l29.87-6.12c7.93-1.65,14.82-6.58,19.76-15.34a219.25,219.25,0,0,0,29-95l-24,.87A231.11,231.11,0,0,1,319,271.8Zm91.46-30.18A211,211,0,0,1,387.92,282l-24,4.92a220.72,220.72,0,0,0,21.71-39.85c.06-.16,0-.3-.1-.29l-5.65.81A222.8,222.8,0,0,1,358,288.13l-24,4.92a218.91,218.91,0,0,0,36.78-106.88l41.87-1.52c7.92-.3,11.7,3.75,10.5,12.09a176.35,176.35,0,0,1-6.77,28.74c-1.56,4.79-4.54,7.64-8.68,8.75C411.48,234.49,412.5,236.88,410.49,241.62ZM397,211.24c0-.16-.05-.31-.17-.3l-5.65.46q-1.65,7.84-4,15.62l5.65-.61a.55.55,0,0,0,.33-.35Q395.39,218.68,397,211.24Zm41.26,30.3q-2.7,5.7-5.85,11.32c-.08.14,0,.27.07.25l5.42-.91a.72.72,0,0,0,.39-.33c1-1.81,2-3.62,3-5.44l24-3.78a187.52,187.52,0,0,1-10.05,16.43,30.81,30.81,0,0,1-19.76,13.18l-29.87,6.13c-8,1.62-9.18-1.29-4.24-9.24A187.53,187.53,0,0,0,429,196.4c1.2-8.25,5.38-12.54,13.37-12.83l29.88-1.08c7.92-.3,11.81,3.28,10.61,10.7a151.25,151.25,0,0,1-14.7,44ZM447,219.82l5.88-.63q2.12-6.42,3.66-12.86c0-.15-.05-.28-.16-.27l-5.42.44a.43.43,0,0,0-.3.31Q449.07,213.33,447,219.82Z" transform="translate(-9.08)" style="fill:none;stroke:#3fa9f5;stroke-linecap:round;stroke-linejoin:round;stroke-width:2.5px"/></g></g></svg>