<svg xmlns="http://www.w3.org/2000/svg" xmlns:xlink="http://www.w3.org/1999/xlink" viewBox="0 0 457.6 275.18"><defs><linearGradient id="Sfumatura_senza_nome_27" x1="245.4" y1="9.07" x2="245.4" y2="279.74" gradientUnits="userSpaceOnUse"><stop offset="0" stop-color="#ff0094"/><stop offset="0.37" stop-color="#f4ef21"/><stop offset="0.46" stop-color="#f4ef23"/><stop offset="0.51" stop-color="#f2ee2c"/><stop offset="0.55" stop-color="#f0ed3a"/><stop offset="0.59" stop-color="#edec4e"/><stop offset="0.62" stop-color="#eaea67"/><stop offset="0.65" stop-color="#e5e886"/><stop offset="0.66" stop-color="#e3e793"/><stop offset="0.82" stop-color="#94e956"/><stop offset="0.92" stop-color="#00dfa7"/></linearGradient></defs><g id="Livello_2" data-name="Livello 2"><g id="Livello_1-2" data-name="Livello 1"><path d="M51,158.55c-9.71.14-14-6.38-13.91-19.82A310.83,310.83,0,0,0,31.13,78l29.12.91A299.71,299.71,0,0,1,65.5,118.2c-.34,1.06,6.75.32,6.9.56.14,0,.26-.24.24-.49A294.67,294.67,0,0,0,41.21,3.71L70.33,5.83c21.43,41,32.14,87.11,32.11,132.72,0,12.95-5.6,19.36-15.21,19.5ZM70.33,5.83c21.43,41,32.14,87.11,32.11,132.72,0,12.95-5.6,19.36-15.21,19.5l-36.26.5c-9.71.13-14-6.38-13.91-19.82A310.83,310.83,0,0,0,31.13,78l29.12.91A299.71,299.71,0,0,1,65.5,118.2c-.14.46,1.06.58,2.51.59s3.16-.09,3.95-.08a1,1,0,0,1,.44.05c.14,0,.26-.24.24-.49A294.67,294.67,0,0,0,41.21,3.71L70.33,5.83M68.41,2.19,39.29,0c-1.66-.13-2.13,1.43-1.08,3.48A295,295,0,0,1,69.38,114.68l-1.13,0a299.32,299.32,0,0,0-5-35.75c-.44-2.23-2.18-4.07-3.84-4.13l-29.12-1c-1.65-.06-2.6,1.74-2.16,4a311.85,311.85,0,0,1,5.93,60.88c-.06,15.64,5.23,24.13,16.61,23.95l36.26-.59c11.27-.18,18.45-8.53,18.51-23.56C105.47,93,94.76,46.93,73.33,6.05c-1-2-3.27-3.74-4.92-3.86ZM165.21,157c-19.84,1.92-12-30.93-15.37-47l29.12.42c1.47,11-1.63,9.24,7.68,9.36.92-.42-1.61-17.37-1.62-18,0-.23-.2-.46-.34-.47l-21.42-.42c-9.71-.18-15.27-6.69-17.89-19.3a271.14,271.14,0,0,0-17.56-54.37c-5.35-12-3.78-17.37,5.94-16.69L170,13.09c19.62-.08,28,28.37,33.34,43.76l-29.12-1.38c-3.93-10.61-.91-8.45-9.9-9.06-.14,0-.2.21-.11.43,2.06,5.64,3.93,11.35,5.6,17.09,12.37,3.37,35.8-5.68,40.93,19.61,5.92,36.66,8.49,55.55,4.19,64.76C210.18,157.62,198.54,157.31,165.21,157Zm6.08-143.82c18.77,1.13,26.84,28.68,32.06,43.71l-29.12-1.38c-2.89-7.91-2-8.71-5-8.88-.92-.05-2.19,0-4-.13l-.83-.05h0c-.14,0-.2.21-.11.43,2.06,5.64,3.93,11.35,5.6,17.09a30.92,30.92,0,0,0,6.44.83c3.37.14,7,0,10.71.18,10.11.46,20.81,2.82,23.78,18.6,5.36,31.9,7.61,50.43,5.52,60.7-2.41,10.35-9.16,12.5-29.42,12.85-6,.08-13.1,0-21.64-.13-.48,0-.94.07-1.39.08-18,.29-10.67-31.4-14-47.08l29.12.42c1.16,8.43-.46,9.37,3,9.4,1,0,2.38-.06,4.36,0h.34c.92-.42-1.61-17.37-1.62-18,0-.23-.2-.46-.34-.47l-21.42-.42c-9.71-.18-15.27-6.69-17.89-19.3a271.14,271.14,0,0,0-17.56-54.37c-5.35-12-3.78-17.37,5.94-16.69L170,13.09c.43,0,.86,0,1.28.05M169.37,9.7c-.45,0-.91-.06-1.37-.06L131.82,6.93c-11.38-.82-13.23,6-7,20a272.15,272.15,0,0,1,17.56,54.46c3,14.71,10,23.07,21.4,23.25l18.66.33c.1.7.22,1.53.35,2.5.31,2.29.75,5.93.92,8.43h-1.24a56.36,56.36,0,0,0-.52-5.7c-.3-2-1.81-3.66-3.41-3.69l-29.12-.48a2.32,2.32,0,0,0-2.06,1.22,4.36,4.36,0,0,0-.46,3,89.71,89.71,0,0,1,.89,11.89c.4,12-.33,25.7,4.83,33.38,2.49,3.66,6.12,5.47,10.91,5.39.47,0,1,0,1.45-.08,8.37.1,15.59.18,21.58.08,15.14-.25,23.85-1.5,28.88-7.63s5.28-15.74,3.82-31.62c-1-9.91-2.65-22.28-5.46-37.85-1.13-6.43-3.77-11.54-7.57-15.23-6.12-5.95-13.77-7-20.36-7.33-1.92-.09-3.83-.1-5.67-.11s-3.43,0-5-.1c-1.25,0-2.34-.14-3.31-.27q-1.62-5.31-3.47-10.56l.89,0h.27c.4,1.28.94,3,1.75,5.23.72,2,2.53,3.63,4.15,3.7l29.12,1.32a1.8,1.8,0,0,0,1.82-1.07,3.53,3.53,0,0,0-.12-2.71c-1.2-3-2.42-6.74-3.83-10.69-3.87-11.13-9.46-23.35-19-30.56a26.34,26.34,0,0,0-14-5.75ZM279.31,155.37c-9.71.14-14-5.53-13.91-17.27A240.59,240.59,0,0,0,241.91,34.3c-5.35-11.22-3.78-16.22,5.94-15.54l36.26,2.64c9.6.73,17.83,6.23,23.18,17a222.94,222.94,0,0,1,23.49,99.53c-.06,11.24-5.6,16.81-15.21,16.94Zm4.8-134c9.6.73,17.83,6.23,23.18,17a222.94,222.94,0,0,1,23.49,99.53c-.06,11.24-5.6,16.81-15.21,16.94l-36.26.5c-9.71.14-14-5.53-13.91-17.27A240.59,240.59,0,0,0,241.91,34.3c-5.35-11.22-3.78-16.22,5.94-15.54l36.26,2.64m-1.93-3.22-36.26-2.71c-11.38-.82-13.23,5.54-7,18.64a241.42,241.42,0,0,1,23.49,104c-.06,13.66,5.23,21.06,16.61,20.87l36.26-.59c11.27-.18,18.45-7.44,18.51-20.47a222.14,222.14,0,0,0-23.49-99.33c-6.23-12.53-16.85-19.54-28.11-20.41Zm3.28,35c0-.91-6.8-.53-7-.77-.14,0-.2.19-.11.4s6.74,16.73,10.3,33.73c4,16.82,5.11,34.16,5.54,34.12.2-.2,7.18.57,6.82-.37a223.32,223.32,0,0,0-5.24-33.88A228.06,228.06,0,0,0,285.46,53.18Zm-2.5-.6c1.37.07,2.52.23,2.5.6a228.06,228.06,0,0,1,10.28,33.23A223.32,223.32,0,0,1,301,120.29c.16.4-1,.49-2.41.48s-3.17-.14-4-.14a1.56,1.56,0,0,0-.44,0c-.43,0-1.51-17.3-5.54-34.12-3.56-17-10.07-33.59-10.3-33.73s0-.41.11-.4a1.63,1.63,0,0,0,.49.07c.83,0,2.57,0,4,.1m-1.38-3.41c-.89-.05-1.83-.06-2.66-.08-.54,0-1,0-1.35,0a3.24,3.24,0,0,0-.52-.07h0c-1.81-.1-2.56,1.54-1.73,3.66a3.82,3.82,0,0,0,.23.51,209.74,209.74,0,0,1,6.91,20.59A246,246,0,0,1,289,104.6c.74,5.08,1.17,8.87,1.48,11.56.18,1.54.31,2.69.42,3.51.58,4.28,2.56,4.49,3.23,4.55l.25,0a2.28,2.28,0,0,0,.45,0c.31,0,.78,0,1.32,0,.78,0,1.76.08,2.64.08,1.77,0,3.79,0,4.78-1.84a4.07,4.07,0,0,0,.38-2.38,225.27,225.27,0,0,0-5.12-33.19,228.07,228.07,0,0,0-10.27-33.27,6,6,0,0,0-1.34-2.26,7.38,7.38,0,0,0-5.66-2.22ZM393.41,153.79c-19.84,1.69-12-26.7-15.37-40.58l29.12.41c1.47,9.48-1.63,8,7.68,8.08.92-.36-1.61-15-1.62-15.54,0-.2-.2-.4-.34-.4l-21.42-.42c-9.71-.19-15.27-5.83-17.89-16.74A214.89,214.89,0,0,0,356,41.46C350.66,31,352.23,26.39,362,27.07l36.26,2.64c19.62.13,28,24.68,33.34,37.95l-29.12-1.38c-3.93-9.17-.91-7.29-9.9-7.88-.14,0-.2.18-.11.37q3.09,7.33,5.6,14.78c12.36,3,35.8-4.67,40.93,17.09,5.92,31.49,8.49,47.71,4.19,55.61C438.37,154.26,426.74,154,393.41,153.79Zm6.08-124c18.77,1.16,26.84,24.93,32.06,37.89l-29.12-1.38c-2.89-6.84-2-7.52-5-7.68-.92-.05-2.19-.05-4-.15l-.83-.05h0c-.14,0-.2.18-.11.37q3.09,7.33,5.6,14.78a34.92,34.92,0,0,0,6.44.75c3.37.14,7,.07,10.71.22C425.28,75,436,77.07,439,90.64c5.36,27.4,7.61,43.31,5.52,52.12-2.41,8.89-9.16,10.75-29.42,11.09-6,.09-13.1,0-21.64-.06-.48,0-1,.06-1.39.06-18,.29-10.67-27.09-14-40.64l29.12.41c1.16,7.27-.46,8.08,3,8.11,1,0,2.38,0,4.36,0h.34c.92-.36-1.61-15-1.62-15.54,0-.2-.2-.4-.34-.4l-21.42-.42c-9.71-.19-15.27-5.83-17.89-16.74A214.89,214.89,0,0,0,356,41.46C350.66,31,352.23,26.39,362,27.07l36.26,2.64c.43,0,.86,0,1.28.06m-1.92-3c-.45,0-.91-.06-1.37-.07L360,24c-11.38-.83-13.23,5.07-7,17.26a215.48,215.48,0,0,1,17.56,47.24c3.05,12.72,10,20,21.4,20.15l18.66.33c.1.61.22,1.32.35,2.15.31,2,.74,5.11.92,7.27h-1.24a42,42,0,0,0-.52-4.91,3.76,3.76,0,0,0-3.41-3.18l-29.12-.49a2.41,2.41,0,0,0-2.06,1.06,3.3,3.3,0,0,0-.46,2.55,68.6,68.6,0,0,1,.89,10.28c.4,10.39-.33,22.21,4.83,28.84,2.49,3.15,6.12,4.71,10.91,4.63.47,0,1,0,1.45-.07,8.37.06,15.59.11,21.58,0,15.14-.25,23.85-1.34,28.88-6.61s5.28-13.52,3.82-27.15c-1-8.5-2.65-19.12-5.46-32.5a22.68,22.68,0,0,0-7.57-13.12c-6.12-5.15-13.77-6.13-20.36-6.42-1.92-.09-3.83-.11-5.67-.14s-3.43,0-5-.11C402.1,71,401,71,400,70.84q-1.62-4.59-3.47-9.13l.89,0h.27c.4,1.1.94,2.57,1.75,4.52a5.32,5.32,0,0,0,4.15,3.22l29.11,1.31a1.85,1.85,0,0,0,1.83-.9,2.65,2.65,0,0,0-.12-2.33c-1.2-2.58-2.42-5.82-3.83-9.22-3.87-9.6-9.46-20.16-19-26.47a29.13,29.13,0,0,0-14.05-5.09ZM133.85,174.9l43.75-1.06q-1.35,10-3.45,19.84l-26,.94q-1.71,8.15-3.92,16.21l22.18-1c-1.7,6.13-3.63,12.23-5.78,18.25l-22.19,1.26a270.65,270.65,0,0,1-15.79,36.31L104.9,267A277.57,277.57,0,0,0,133.85,174.9Zm43.75-1.06q-1.35,10-3.45,19.84l-26,.94q-1.71,8.15-3.92,16.21l22.18-1c-1.7,6.13-3.63,12.23-5.78,18.25l-22.19,1.26a270.65,270.65,0,0,1-15.79,36.31L104.9,267a277.57,277.57,0,0,0,28.95-92.11l43.75-1.06m.49-3.82-43.75,1c-1.65,0-3.2,1.83-3.49,4a278.51,278.51,0,0,1-28.95,92.27c-1,2-.56,3.49,1.1,3.36l17.77-1.41c1.66-.13,3.87-1.82,4.9-3.79a271.13,271.13,0,0,0,14.45-32.52l19.18-1.13c1.66-.09,3.62-1.82,4.35-3.86q3.22-9,5.78-18.22c.58-2.07-.32-3.7-2-3.63l-19.19.84q1.11-4.26,2.07-8.54l23-.89c1.66-.06,3.39-1.8,3.84-3.89q2.1-9.84,3.45-19.8c.29-2.11-.85-3.79-2.51-3.75Zm43.11,2.77,17.66-.43a248.55,248.55,0,0,1-13.31,52.41,69.22,69.22,0,0,1-7.41,14.42,61.48,61.48,0,0,1-10.45,12A47.32,47.32,0,0,1,197,258.59a38.89,38.89,0,0,1-13.9,3.74,47.45,47.45,0,0,1-8.65-.14c-3-.32-5.12-1.25-6.44-2.79s-2.09-3.85-2.38-6.93a30,30,0,0,1,.78-9.75,137,137,0,0,1,4.26-14.83,263.93,263.93,0,0,0,13.3-54.2l17.66-.43a259.58,259.58,0,0,1-13.76,54.88c-1.78,4.8-2.44,8.46-1.84,11s2.41,3.71,5.49,3.51a14.28,14.28,0,0,0,8.86-4.37A29.66,29.66,0,0,0,207.44,227,253.8,253.8,0,0,0,221.2,172.79Zm17.66-.43a248.55,248.55,0,0,1-13.31,52.41,69.22,69.22,0,0,1-7.41,14.42,61.48,61.48,0,0,1-10.45,12A47.32,47.32,0,0,1,197,258.59a38.89,38.89,0,0,1-13.9,3.74,47.45,47.45,0,0,1-8.65-.14c-3-.32-5.12-1.25-6.44-2.79s-2.09-3.85-2.38-6.93a30,30,0,0,1,.78-9.75,137,137,0,0,1,4.26-14.83,263.93,263.93,0,0,0,13.3-54.2l17.66-.43a259.58,259.58,0,0,1-13.76,54.88c-1.78,4.8-2.44,8.46-1.84,11s2.41,3.71,5.49,3.51a14.28,14.28,0,0,0,8.86-4.37A29.66,29.66,0,0,0,207.44,227a253.8,253.8,0,0,0,13.76-54.22l17.66-.43m.49-3.69-17.66.39c-1.66,0-3.2,1.74-3.49,3.8a254.67,254.67,0,0,1-13.76,54.32,24.48,24.48,0,0,1-5.48,9.06,9.14,9.14,0,0,1-5.89,2.86c-2.15.14-3.33-.59-3.75-2.29-.47-1.93.08-4.9,1.55-8.85a258.46,258.46,0,0,0,13.76-54.77c.29-2.08-.85-3.74-2.51-3.7l-17.66.39c-1.65,0-3.2,1.77-3.49,3.88a264.84,264.84,0,0,1-13.3,54.3,153.34,153.34,0,0,0-4.53,15.68,34.33,34.33,0,0,0-1,10.9c.29,3.42,1.15,6,2.63,7.79s3.95,2.86,7.31,3.21a50.08,50.08,0,0,0,9.06.13,44.31,44.31,0,0,0,15.41-4.18A55.24,55.24,0,0,0,209,253.11a68,68,0,0,0,11.66-13.18,72.37,72.37,0,0,0,7.93-15.33,247.67,247.67,0,0,0,13.31-52.31c.28-2-.86-3.65-2.51-3.62Zm4,3.58,53.79-1.31q-1.54,10.63-4.1,21.15l-18.05.68a241.69,241.69,0,0,1-24.85,63l-17.7,1.37a245.85,245.85,0,0,0,24.86-63.72l-18.05.69Q241.8,183.26,243.35,172.25Zm53.79-1.31q-1.54,10.63-4.1,21.15l-18.05.68a241.69,241.69,0,0,1-24.85,63l-17.7,1.37a245.85,245.85,0,0,0,24.86-63.72l-18.05.69q2.55-10.87,4.1-21.88l53.79-1.31m.49-3.55-53.79,1.18c-1.66,0-3.2,1.72-3.49,3.75q-1.54,11-4.1,21.92c-.47,2,.46,3.58,2.12,3.52l15-.61a246.74,246.74,0,0,1-24,60.24c-1,1.85-.55,3.24,1.1,3.11l17.7-1.4a7.35,7.35,0,0,0,4.9-3.54,240.93,240.93,0,0,0,24-59.36l15.05-.61A4.7,4.7,0,0,0,296,192q2.55-10.49,4.1-21.1c.29-2-.85-3.51-2.51-3.48Zm41.58,2.53,17.66-.42a217.75,217.75,0,0,1-13.3,48.58,63,63,0,0,1-7.42,13.39,59.42,59.42,0,0,1-10.44,11.13,47.92,47.92,0,0,1-10.69,7,41.37,41.37,0,0,1-13.9,3.55,51.17,51.17,0,0,1-8.65-.08c-3-.28-5.13-1.13-6.44-2.56s-2.09-3.57-2.39-6.43a25.93,25.93,0,0,1,.79-9,123,123,0,0,1,4.25-13.8A231.46,231.46,0,0,0,302,170.83l17.65-.43a226.7,226.7,0,0,1-13.76,50.95c-1.78,4.47-2.44,7.87-1.83,10.23s2.41,3.43,5.48,3.23a14.8,14.8,0,0,0,8.87-4.1,27.55,27.55,0,0,0,7.05-10.48A221.8,221.8,0,0,0,339.21,169.92Zm17.66-.42a217.75,217.75,0,0,1-13.3,48.58,63,63,0,0,1-7.42,13.39,59.42,59.42,0,0,1-10.44,11.13,47.92,47.92,0,0,1-10.69,7,41.37,41.37,0,0,1-13.9,3.55,51.17,51.17,0,0,1-8.65-.08c-3-.28-5.13-1.13-6.44-2.56s-2.09-3.57-2.39-6.43a25.93,25.93,0,0,1,.79-9,123,123,0,0,1,4.25-13.8A231.46,231.46,0,0,0,302,170.83l17.65-.43a226.7,226.7,0,0,1-13.76,50.95c-1.78,4.47-2.44,7.87-1.83,10.23s2.41,3.43,5.48,3.23a14.8,14.8,0,0,0,8.87-4.1,27.55,27.55,0,0,0,7.05-10.48,221.8,221.8,0,0,0,13.76-50.31l17.66-.42m.49-3.41-17.66.38a4,4,0,0,0-3.49,3.53,222.52,222.52,0,0,1-13.76,50.4,22.52,22.52,0,0,1-5.48,8.42,9.48,9.48,0,0,1-5.89,2.68c-2.14.14-3.32-.53-3.74-2.11-.48-1.79.08-4.54,1.54-8.21a226,226,0,0,0,13.76-50.85c.29-1.93-.85-3.47-2.51-3.43l-17.65.39c-1.66,0-3.21,1.65-3.49,3.61a232.16,232.16,0,0,1-13.31,50.46A134.82,134.82,0,0,0,281.15,236a29.75,29.75,0,0,0-1,10.13c.3,3.18,1.15,5.6,2.64,7.23s3.94,2.63,7.3,2.94a55.06,55.06,0,0,0,9.07.06,47.07,47.07,0,0,0,15.4-4A56.31,56.31,0,0,0,327,244.42a65.59,65.59,0,0,0,11.65-12.28,66.44,66.44,0,0,0,7.94-14.23,217,217,0,0,0,13.3-48.49c.29-1.87-.85-3.37-2.51-3.33Zm-20.69,83a219.44,219.44,0,0,0,28.95-79.82l29.49-.71q8.2-.19,12.23,1.66c2.66,1.22,4.59,3.58,5.63,7s1,7.69-.42,12.67a33.33,33.33,0,0,1-5.48,11.32,33.93,33.93,0,0,1-8.33,7.89,30.1,30.1,0,0,1-7.41,3.41,8.37,8.37,0,0,1,3.45,2.6,11.9,11.9,0,0,1,1.09,3.89,19,19,0,0,1,.32,4.6,158.86,158.86,0,0,1-3.2,21.11l-20,1.54a163.25,163.25,0,0,0,2.87-22.56c.2-3,0-4.94-.58-5.81a3.77,3.77,0,0,0-3.58-1.57l-1.57.09a222.65,222.65,0,0,1-15.7,31.29Zm58.44-80.53q8.2-.19,12.23,1.66c2.66,1.22,4.59,3.58,5.63,7s1,7.69-.42,12.67a33.33,33.33,0,0,1-5.48,11.32,33.93,33.93,0,0,1-8.33,7.89,30.1,30.1,0,0,1-7.41,3.41,8.37,8.37,0,0,1,3.45,2.6,11.9,11.9,0,0,1,1.09,3.89,19,19,0,0,1,.32,4.6,158.86,158.86,0,0,1-3.2,21.11l-20,1.54a163.25,163.25,0,0,0,2.87-22.56c.2-3,0-4.94-.58-5.81a3.77,3.77,0,0,0-3.58-1.57l-1.57.09a222.65,222.65,0,0,1-15.7,31.29l-17.77,1.37a219.44,219.44,0,0,0,28.95-79.82l29.49-.71m.5-3.32-29.5.64a4,4,0,0,0-3.49,3.47,220.08,220.08,0,0,1-28.95,80c-1,1.74-.56,3,1.1,2.9l17.77-1.41a7.31,7.31,0,0,0,4.9-3.33,223,223,0,0,0,14.21-27.65,2,2,0,0,1,.61.59c.1.18.52,1.15.27,4.7a163.59,163.59,0,0,1-3,22.58c-.23,1.09.4,1.74,1.6,1.64l20-1.58a6.58,6.58,0,0,0,3.33-1.53,5.61,5.61,0,0,0,2-2.85,158.75,158.75,0,0,0,3-21.11,20.3,20.3,0,0,0-.37-5.09c-.53-3-1.06-4-1.39-4.51h0c.63-.35,1.24-.72,1.82-1.1a39.66,39.66,0,0,0,9.75-9.12,36.9,36.9,0,0,0,6.22-12.64c1.52-5.51,1.59-10.29.37-14.21a13.11,13.11,0,0,0-7-8.46c-3.06-1.41-7.44-2-13.35-1.9Zm-20,36.23,7.46-.35a25.11,25.11,0,0,0,5-1.29,7.81,7.81,0,0,0,3.65-2.61,12.25,12.25,0,0,0,2.47-4.64c.73-2.56.65-4.51-.17-5.85s-2.87-1.94-6.1-1.83l-7.77.28Q378.24,193.38,375.61,201.48ZM388,184.91c3.23-.11,5.27.5,6.1,1.83s.9,3.29.17,5.85a12.11,12.11,0,0,1-2.47,4.64,7.81,7.81,0,0,1-3.65,2.61,25.11,25.11,0,0,1-5,1.29l-7.46.35q2.64-8.08,4.58-16.29l7.77-.28m.77-3.31-7.78.26a4.46,4.46,0,0,0-3.76,3.43q-1.95,8.22-4.58,16.33c-.58,1.82.25,3.22,1.91,3.14l7.46-.36a24.66,24.66,0,0,0,5.88-1.46,12.92,12.92,0,0,0,5.94-4.14,16.7,16.7,0,0,0,3.43-6.34c1-3.39.79-6.1-.43-8s-3.94-3-8.07-2.83Zm35.65-13.74,47.42-1.15q-1.35,8.14-3.43,16.22L438.68,184q-1.56,6.15-3.52,12.24L462.7,195q-2.54,7.67-5.74,15.23l-27.54,1.53q-3.1,7.47-6.84,14.79l30.55-2q-4.29,8.25-9.43,16.29l-48.28,3.73A205.84,205.84,0,0,0,424.38,167.86Zm47.42-1.15q-1.35,8.14-3.43,16.22L438.68,184q-1.56,6.15-3.52,12.24L462.7,195q-2.54,7.67-5.74,15.23l-27.54,1.53q-3.1,7.47-6.84,14.79l30.55-2q-4.29,8.25-9.43,16.29l-48.28,3.73a205.84,205.84,0,0,0,29-76.7l47.42-1.15m.49-3.15-47.42,1a3.9,3.9,0,0,0-3.49,3.33,206.5,206.5,0,0,1-29,76.86c-1,1.68-.56,2.92,1.1,2.78l48.28-3.82a7.44,7.44,0,0,0,4.9-3.16q5.13-8,9.43-16.25c.86-1.65.19-2.91-1.46-2.81l-27.55,1.76q2.1-4.26,4-8.58l24.53-1.42a5.6,5.6,0,0,0,4.33-3.22q3.21-7.53,5.74-15.2c.56-1.71-.35-3-2-3l-24.54,1c.6-2,1.16-3.92,1.7-5.88l26.68-1a4.49,4.49,0,0,0,3.84-3.23q2.08-8.06,3.43-16.18a2.51,2.51,0,0,0-2.51-3.08ZM29.05,231.85l20.18-1.1q-1.68,5.25-3.56,10.44l-6.77.41a294.23,294.23,0,0,1-13.25,31.18l-6.64.51A294,294,0,0,0,32.27,242l-6.77.41Q27.38,237.16,29.05,231.85Zm-4.34,42.81-6.64.52c-.83.06-1.07-.73-.56-1.78a293.65,293.65,0,0,0,12.55-29.34l-5.27.33c-.83.05-1.18-.8-.79-1.89q1.88-5.25,3.55-10.56a2.88,2.88,0,0,1,2.13-2.09l20.17-1.08c.83,0,1.22.81.88,1.9q-1.68,5.25-3.56,10.43A3,3,0,0,1,45,243.15l-5.27.32a295.41,295.41,0,0,1-12.54,29.19A3.66,3.66,0,0,1,24.71,274.66Zm-3.27-3.38,3.63-.28A291.18,291.18,0,0,0,37.4,241.69a3.08,3.08,0,0,1,2.2-2.06l5.27-.31c.77-2.16,1.5-4.33,2.22-6.51l-17.18,1q-1.07,3.3-2.21,6.57L33,240c.83-.05,1.19.79.8,1.88A296.9,296.9,0,0,1,21.44,271.28Zm33.82-40.85,6.63-.37q-2.37,7.4-5.15,14.66l7.25-.45q2.77-7.25,5.15-14.6l6.67-.36A286.7,286.7,0,0,1,59,270.2l-6.67.52q4.05-8.07,7.58-16.35l-7.25.5q-3.52,8.31-7.58,16.41l-6.63.51A291.84,291.84,0,0,0,55.26,230.43Zm2.8,41.62-6.67.52c-.82.07-1.07-.71-.56-1.74q3.59-7.14,6.76-14.45l-4.25.29q-3.18,7.33-6.76,14.49a3.6,3.6,0,0,1-2.44,2l-6.63.52c-.83.06-1.08-.72-.56-1.76a292.2,292.2,0,0,0,16.81-41.39,2.88,2.88,0,0,1,2.12-2.06l6.64-.35c.83,0,1.22.8.87,1.88q-2.05,6.41-4.42,12.71l4.25-.26q2.37-6.28,4.42-12.68a2.86,2.86,0,0,1,2.13-2l6.67-.36c.82,0,1.22.8.87,1.87A286.47,286.47,0,0,1,60.5,270.09,3.62,3.62,0,0,1,58.06,272.05Zm-3.3-3.31,3.66-.28a285.83,285.83,0,0,0,15.25-37.12l-3.67.2c-1.4,4.24-2.9,8.46-4.51,12.63a3.08,3.08,0,0,1-2.24,2l-7.25.46c-.83.06-1.16-.76-.76-1.83q2.4-6.31,4.51-12.71l-3.63.2A290.1,290.1,0,0,1,40.87,269.8l3.64-.28Q48,262.34,51.16,255a3.28,3.28,0,0,1,2.3-2l7.25-.49c.83-.05,1.15.76.7,1.81Q58.29,261.59,54.76,268.74ZM83.2,228.9l17.79-1q-1.45,4.41-3,8.78l-11.13.66c-.8,2.18-1.62,4.36-2.46,6.52l10.32-.65c-1.08,2.76-2.22,5.51-3.39,8.25l-10.33.7q-1.71,4-3.54,7.93l11.46-.83q-2.1,4.51-4.37,8.95l-18.11,1.39A283.19,283.19,0,0,0,83.2,228.9Zm.36,41.16-18.11,1.42c-.82.06-1.07-.71-.56-1.73A284.13,284.13,0,0,0,81.7,229a2.85,2.85,0,0,1,2.13-2l17.78-1c.83,0,1.23.78.88,1.84q-1.45,4.41-3,8.77a3,3,0,0,1-2.21,2l-9.63.59c-.33.9-.67,1.8-1,2.69l8.83-.55c.83-.05,1.17.76.76,1.8-1.08,2.77-2.22,5.51-3.39,8.25a3.3,3.3,0,0,1-2.32,2l-8.82.6q-.92,2.1-1.87,4.19l10-.71c.83-.06,1.12.72.64,1.74q-2.1,4.51-4.37,8.94A3.61,3.61,0,0,1,83.56,270.06Zm-14.74-2.39,15.1-1.15c.88-1.75,1.74-3.5,2.58-5.27l-10,.73c-.83.06-1.1-.72-.63-1.75q1.83-3.94,3.54-7.94a3.26,3.26,0,0,1,2.3-2l8.83-.59c.62-1.49,1.24-3,1.84-4.48l-8.83.56c-.83.06-1.16-.75-.74-1.8q1.26-3.26,2.46-6.53a3,3,0,0,1,2.19-2l9.63-.56q.89-2.47,1.72-4.95l-14.79.82A284.44,284.44,0,0,1,68.82,267.67ZM34.25,178.05l16.41-.41c-.41,3.17-.86,6.33-1.37,9.48l-9.74.29q-.61,3.87-1.33,7.72l8.32-.28q-.82,4.43-1.78,8.84l-8.32.32Q34.5,213,32,221.84l-6.67.33A308.92,308.92,0,0,0,34.25,178.05Zm-2.79,45.81-6.67.33c-.82,0-1.24-.83-.93-1.95a309.32,309.32,0,0,0,8.89-44.15c.15-1.15.93-2.1,1.76-2.12l16.4-.38c.83,0,1.39.88,1.25,2-.41,3.16-.86,6.32-1.37,9.47-.18,1.13-1,2.07-1.83,2.09l-8.25.26c-.2,1.2-.4,2.4-.62,3.6l6.82-.23c.83,0,1.34.87,1.13,2-.55,3-1.14,5.9-1.78,8.84a2.53,2.53,0,0,1-1.95,2.09l-6.82.28q-1.77,7.94-4,15.77A2.76,2.76,0,0,1,31.46,223.86Zm-4-3.79,3.67-.18q2.13-7.86,3.85-15.82a2.5,2.5,0,0,1,1.93-2.1l6.82-.26q.51-2.39,1-4.77l-6.82.24c-.83,0-1.32-.86-1.11-2q.72-3.85,1.33-7.72c.18-1.14,1-2.08,1.82-2.11l8.24-.24c.28-1.79.53-3.58.78-5.37l-13.41.35A308.32,308.32,0,0,1,27.42,220.07Zm16.21,1.2a302.91,302.91,0,0,0,8.89-43.67l11.06-.27a7.79,7.79,0,0,1,4.56.95,6,6,0,0,1,2.06,3.91,19.66,19.66,0,0,1-.12,7,24.06,24.06,0,0,1-1.9,6.26,15.69,15.69,0,0,1-3,4.32,9,9,0,0,1-2.69,1.8,4.18,4.18,0,0,1,1.38,1.53,10,10,0,0,1,.55,2.22,18,18,0,0,1,.31,2.64q.12,6.17,0,12.26l-7.5.36q.08-6.43-.15-13a9.91,9.91,0,0,0-.44-3.29,1.48,1.48,0,0,0-1.4-1l-.59,0Q52.76,212.24,50.3,221Zm20.56.95-7.5.37c-.63,0-1-.46-1-1.24q.09-6.45-.12-13c0-.76-.06-1.3-.1-1.69q-1.65,7.14-3.64,14.19a2.75,2.75,0,0,1-2.07,2.07l-6.67.34c-.83,0-1.24-.83-.93-1.93A303.71,303.71,0,0,0,51,177.64c.15-1.14.93-2.08,1.76-2.1l11.06-.26A8.64,8.64,0,0,1,69,176.44c1.28.89,2.19,2.52,2.66,4.86a21.81,21.81,0,0,1-.11,7.87,26.59,26.59,0,0,1-2.15,7,18.32,18.32,0,0,1-3.51,5.08c-.18.18-.37.36-.57.53a11.67,11.67,0,0,1,.66,2.57,19.38,19.38,0,0,1,.34,2.95q.14,6.15,0,12.23a3.19,3.19,0,0,1-.71,1.81A2.22,2.22,0,0,1,64.19,222.22Zm-5.32-3.66,4.34-.21q.07-4.8,0-9.66a17.27,17.27,0,0,0-.28-2.35,10.67,10.67,0,0,0-.41-1.82,3.43,3.43,0,0,0-1-1.11,1.79,1.79,0,0,1-.41-1.9,2.77,2.77,0,0,1,1.39-1.81,6.84,6.84,0,0,0,2.07-1.37,12.65,12.65,0,0,0,2.39-3.55,20.94,20.94,0,0,0,1.66-5.52,17.56,17.56,0,0,0,.14-6.17,4.6,4.6,0,0,0-1.49-3,6.56,6.56,0,0,0-3.92-.76l-9.56.24a303.75,303.75,0,0,1-8.06,39.58l3.67-.17q2.12-7.72,3.82-15.54a2.51,2.51,0,0,1,1.94-2.09l.58,0a2.47,2.47,0,0,1,2.36,1.53,10.67,10.67,0,0,1,.62,4C58.82,210.81,58.89,214.7,58.87,218.56Zm-2.51-23.37,2.8-.1a7,7,0,0,0,1.87-.65,3,3,0,0,0,1.33-1.4,8.25,8.25,0,0,0,.87-2.55,6,6,0,0,0-.11-3.22c-.32-.74-1.09-1.09-2.3-1.06l-2.91.09Q57.21,190.76,56.36,195.19Zm2.4,1.93-2.79.1c-.83,0-1.32-.85-1.11-2,.56-3,1.08-5.92,1.55-8.9.18-1.12,1-2.06,1.82-2.08l2.91-.09c1.69,0,2.82.56,3.36,1.81a8.1,8.1,0,0,1,.23,4.47,10.82,10.82,0,0,1-1.21,3.47,5.14,5.14,0,0,1-2.43,2.44A6.36,6.36,0,0,1,58.76,197.12Zm-.52-4,1.3-.05a7.36,7.36,0,0,0,1.36-.53s.13-.09.29-.38a5.08,5.08,0,0,0,.54-1.61,3.93,3.93,0,0,0,0-2c0-.1-.34-.35-1.24-.32l-1.41,0C58.81,189.9,58.53,191.5,58.24,193.11ZM69,198.86c1.45-7.05,3.31-12.62,5.86-16.63s5.48-6.06,9-6.14,6.1,1.78,7.46,5.58,1.46,9.15,0,16A48.75,48.75,0,0,1,87.22,210a25.2,25.2,0,0,1-5.62,7.55,10.88,10.88,0,0,1-6.72,2.93q-3.63.18-5.37-2c-1.16-1.45-1.78-3.81-1.93-7.1A52.88,52.88,0,0,1,69,198.86Zm5.33,23.56c-2.73.14-4.79-.64-6.12-2.32s-2-4.32-2.18-7.95a57.24,57.24,0,0,1,1.47-13.24c1.53-7.43,3.54-13.43,6.27-17.77,2.89-4.6,6.31-7,10.32-7.07s7,2.08,8.61,6.45c1.49,4.1,1.62,9.88.13,17.11a51,51,0,0,1-4.33,12.93A28.27,28.27,0,0,1,82.14,219,12.85,12.85,0,0,1,74.3,222.42Zm9.24-44.31c-3,.07-5.45,1.78-7.63,5.21-2.33,3.64-4.08,8.87-5.44,15.48a50.2,50.2,0,0,0-1.31,11.77c.14,2.92.69,5,1.68,6.25a5.23,5.23,0,0,0,4.6,1.66,8.93,8.93,0,0,0,5.61-2.42A22.24,22.24,0,0,0,86,209.38a47.31,47.31,0,0,0,3.83-11.64c1.33-6.44,1.27-11.47,0-14.91C88.7,179.58,86.6,178,83.54,178.11ZM75.6,198.67c-.9,4.35-1.24,7.44-.88,9.29s1.2,2.75,2.59,2.68,2.76-1,4-2.9,2.41-5.19,3.4-10c.83-4,.94-7,.46-8.82s-1.45-2.75-2.85-2.71-2.56,1-3.7,3S76.5,194.29,75.6,198.67Zm1.2,14c-1.35.06-3-.52-3.63-3.63-.4-2.17-.06-5.52.93-10.27s2-8.24,3.38-10.51c1.9-3.24,3.84-4,5.15-4s3.16.57,4,3.67c.59,2.17.49,5.39-.42,9.82-1.07,5.19-2.38,8.76-3.83,11C80.28,211.83,78.18,212.56,76.8,212.63ZM82,188.23c-.53,0-1.26.25-2.24,1.91-.67,1.1-1.62,3.48-2.64,8.47s-1.06,7.25-.84,8.31c.3,1.59,1,1.76,1.54,1.74s1.4-.26,2.43-1.84c.69-1.07,1.82-3.49,3-9,.93-4.56.75-6.78.48-7.83C83.27,188.4,82.55,188.21,82,188.23Zm14.59-11.72,8.73-.21c0,8.66-.46,17.27-1.28,25.78q4.59-12.89,8-26l8.73-.21a283.34,283.34,0,0,1-8.89,42l-5.43.27a285.42,285.42,0,0,0,7.35-32.06,313,313,0,0,1-11.54,32.26l-4.92.24a275,275,0,0,0,3.18-32.09,287.81,287.81,0,0,1-7.36,32.3l-5.44.26A289.14,289.14,0,0,0,96.57,176.51Zm14.7,43.35-5.44.27c-.82,0-1.24-.79-.92-1.86q1.28-4.41,2.42-8.87-1.78,4.65-3.73,9.25a2.61,2.61,0,0,1-1.95,1.69l-4.92.25c-.73,0-1.15-.62-1-1.55.48-3,.92-6.08,1.3-9.14-.75,3-1.56,5.93-2.41,8.87a2.74,2.74,0,0,1-2.07,2l-5.44.27c-.82,0-1.24-.8-.93-1.88a289.92,289.92,0,0,0,8.89-42.64,2.18,2.18,0,0,1,1.76-2l8.72-.21c.73,0,1.27.67,1.27,1.62,0,4.84-.14,9.67-.4,14.46q2.27-7.24,4.15-14.55a2.08,2.08,0,0,1,1.69-1.69l8.72-.2c.83,0,1.39.85,1.25,1.94a282.69,282.69,0,0,1-8.89,42A2.71,2.71,0,0,1,111.27,219.86Zm-2.81-3.67,2.44-.12a283.58,283.58,0,0,0,8-38.14l-6,.16q-3.27,12.18-7.57,24.26a2.4,2.4,0,0,1-1.86,1.7h0c-.73,0-1.19-.64-1.1-1.58q1.17-12,1.29-24.15l-6,.16a288.27,288.27,0,0,1-8.06,38.6l2.44-.11A291.37,291.37,0,0,0,99,186.59a2.36,2.36,0,0,1,1.7-2c.79-.09,1.37.58,1.33,1.6a271.9,271.9,0,0,1-2.89,30.46l2.39-.11a315.25,315.25,0,0,0,10.83-30.67,2.11,2.11,0,0,1,1.88-1.68c.76.06,1.22.9,1,1.93A281.73,281.73,0,0,1,108.46,216.19Z" transform="translate(-17.24)" style="fill:#309dd3"/><path id="Logo" d="M51,158.55c-9.71.14-14-6.38-13.91-19.82A310.83,310.83,0,0,0,31.13,78l29.12.91A299.71,299.71,0,0,1,65.5,118.2c0,.25.18.5.32.5l6.58.06c.14,0,.26-.24.24-.49A294.67,294.67,0,0,0,41.21,3.71L70.33,5.83c21.43,41,32.14,87.11,32.11,132.72,0,12.95-5.6,19.36-15.21,19.5ZM165.21,157c-9.71.14-14-6-13.91-18.54A273.41,273.41,0,0,0,149.84,110l29.12.42q.47,4.41.78,8.84c0,.23.18.46.32.47l6.58,0c.14,0,.26-.23.24-.46q-.63-8.81-1.86-17.58c0-.23-.2-.46-.34-.47l-21.42-.42c-9.71-.18-15.27-6.69-17.89-19.3a271.14,271.14,0,0,0-17.56-54.37c-5.35-12-3.78-17.37,5.94-16.69L170,13.09c9.6.73,17.83,6.59,23.18,18.15a253.4,253.4,0,0,1,10.16,25.61l-29.12-1.38q-1.36-4.15-2.87-8.25c-.09-.23-.31-.46-.45-.46l-6.58-.35c-.14,0-.2.21-.11.43,2.06,5.64,3.93,11.35,5.6,17.09.07.23.28.46.41.47l21.42.9c9.62.41,16.44,6.33,19.1,18.24a253.5,253.5,0,0,1,5.93,54.7c-.06,12.09-5.6,18.08-15.21,18.22Zm114.1-1.59c-9.71.14-14-5.53-13.91-17.27A240.59,240.59,0,0,0,241.91,34.3c-5.35-11.22-3.78-16.22,5.94-15.54l36.26,2.64c9.6.73,17.83,6.23,23.18,17a222.94,222.94,0,0,1,23.49,99.53c-.06,11.24-5.6,16.81-15.21,16.94Zm6.15-102.19a.72.72,0,0,0-.45-.43l-6.58-.34c-.14,0-.2.19-.11.4a232.32,232.32,0,0,1,15.52,67.42c0,.22.18.43.32.44l6.58,0c.14,0,.26-.21.24-.43A230.4,230.4,0,0,0,285.46,53.18Zm108,100.61c-9.71.13-14-5.12-13.91-16A204.32,204.32,0,0,0,378,113.21l29.12.41q.46,3.81.78,7.62c0,.2.18.4.32.41l6.58,0c.14,0,.26-.2.24-.4q-.63-7.58-1.86-15.14c0-.2-.2-.4-.34-.4l-21.42-.42c-9.71-.19-15.27-5.83-17.89-16.74A214.89,214.89,0,0,0,356,41.46C350.66,31,352.23,26.39,362,27.07l36.26,2.64c9.6.72,17.83,5.86,23.18,15.85a204.72,204.72,0,0,1,10.16,22.1l-29.12-1.38c-.91-2.39-1.87-4.76-2.87-7.13a.74.74,0,0,0-.45-.4l-6.58-.35c-.14,0-.2.18-.11.37q3.09,7.33,5.6,14.78c.07.2.27.4.41.41l21.42.89c9.62.42,16.44,5.54,19.1,15.79a188.4,188.4,0,0,1,5.93,47c-.06,10.39-5.6,15.54-15.21,15.67ZM34.25,178.05l16.41-.41c-.41,3.17-.86,6.33-1.37,9.48l-9.74.29q-.61,3.87-1.33,7.72l8.32-.28q-.82,4.43-1.78,8.84l-8.32.32Q34.5,213,32,221.84l-6.67.33A308.92,308.92,0,0,0,34.25,178.05Zm9.38,43.22a302.91,302.91,0,0,0,8.89-43.67l11.06-.27a7.79,7.79,0,0,1,4.56.95,6,6,0,0,1,2.06,3.91,19.66,19.66,0,0,1-.12,7,24.06,24.06,0,0,1-1.9,6.26,15.69,15.69,0,0,1-3,4.32,9,9,0,0,1-2.69,1.8,4.18,4.18,0,0,1,1.38,1.53,10,10,0,0,1,.55,2.22,18,18,0,0,1,.31,2.64q.12,6.17,0,12.26l-7.5.36q.08-6.43-.15-13a9.91,9.91,0,0,0-.44-3.29,1.48,1.48,0,0,0-1.4-1l-.59,0Q52.76,212.24,50.3,221Zm12.73-26.08,2.8-.1a7,7,0,0,0,1.87-.65,3,3,0,0,0,1.33-1.4,8.25,8.25,0,0,0,.87-2.55,6,6,0,0,0-.11-3.22c-.32-.74-1.09-1.09-2.3-1.06l-2.91.09Q57.21,190.76,56.36,195.19ZM69,198.86c1.45-7.05,3.31-12.62,5.86-16.63s5.48-6.06,9-6.14,6.1,1.78,7.46,5.58,1.46,9.15,0,16A48.75,48.75,0,0,1,87.22,210a25.2,25.2,0,0,1-5.62,7.55,10.88,10.88,0,0,1-6.72,2.93q-3.63.18-5.37-2c-1.16-1.45-1.78-3.81-1.93-7.1A52.88,52.88,0,0,1,69,198.86Zm6.63-.19c-.9,4.35-1.24,7.44-.88,9.29s1.2,2.75,2.59,2.68,2.76-1,4-2.9,2.41-5.19,3.4-10c.83-4,.94-7,.46-8.82s-1.45-2.75-2.85-2.71-2.56,1-3.7,3S76.5,194.29,75.6,198.67Zm21-22.16,8.73-.21c0,8.66-.46,17.27-1.28,25.78q4.59-12.89,8-26l8.73-.21a283.34,283.34,0,0,1-8.89,42l-5.43.27a285.42,285.42,0,0,0,7.35-32.06,313,313,0,0,1-11.54,32.26l-4.92.24a275,275,0,0,0,3.18-32.09,287.81,287.81,0,0,1-7.36,32.3l-5.44.26A289.14,289.14,0,0,0,96.57,176.51ZM29.05,231.85l20.18-1.1q-1.68,5.25-3.56,10.44l-6.77.41a294.23,294.23,0,0,1-13.25,31.18l-6.64.51A294,294,0,0,0,32.27,242l-6.77.41Q27.38,237.16,29.05,231.85Zm26.21-1.42,6.63-.37q-2.37,7.4-5.15,14.66l7.25-.45q2.77-7.25,5.15-14.6l6.67-.36A286.7,286.7,0,0,1,59,270.2l-6.67.52q4.05-8.07,7.58-16.35l-7.25.5q-3.52,8.31-7.58,16.41l-6.63.51A291.84,291.84,0,0,0,55.26,230.43ZM83.2,228.9l17.79-1q-1.45,4.41-3,8.78l-11.13.66c-.8,2.18-1.62,4.36-2.46,6.52l10.32-.65c-1.08,2.76-2.22,5.51-3.39,8.25l-10.33.7q-1.71,4-3.54,7.93l11.46-.83q-2.1,4.51-4.37,8.95l-18.11,1.39A283.19,283.19,0,0,0,83.2,228.9Zm50.65-54,43.75-1.06q-1.35,10-3.45,19.84l-26,.94q-1.71,8.15-3.92,16.21l22.18-1c-1.7,6.13-3.63,12.23-5.78,18.25l-22.19,1.26a270.65,270.65,0,0,1-15.79,36.31L104.9,267A277.57,277.57,0,0,0,133.85,174.9Zm87.35-2.11,17.66-.43a248.55,248.55,0,0,1-13.31,52.41,69.22,69.22,0,0,1-7.41,14.42,61.48,61.48,0,0,1-10.45,12A47.32,47.32,0,0,1,197,258.59a38.89,38.89,0,0,1-13.9,3.74,47.45,47.45,0,0,1-8.65-.14c-3-.32-5.12-1.25-6.44-2.79s-2.09-3.85-2.38-6.93a30,30,0,0,1,.78-9.75,137,137,0,0,1,4.26-14.83,263.93,263.93,0,0,0,13.3-54.2l17.66-.43a259.58,259.58,0,0,1-13.76,54.88c-1.78,4.8-2.44,8.46-1.84,11s2.41,3.71,5.49,3.51a14.28,14.28,0,0,0,8.86-4.37A29.66,29.66,0,0,0,207.44,227,253.8,253.8,0,0,0,221.2,172.79Zm22.15-.54,53.79-1.31q-1.54,10.63-4.1,21.15l-18.05.68a241.69,241.69,0,0,1-24.85,63l-17.7,1.37a245.85,245.85,0,0,0,24.86-63.72l-18.05.69Q241.8,183.26,243.35,172.25Zm95.86-2.33,17.66-.42a217.75,217.75,0,0,1-13.3,48.58,63,63,0,0,1-7.42,13.39,59.42,59.42,0,0,1-10.44,11.13,47.92,47.92,0,0,1-10.69,7,41.37,41.37,0,0,1-13.9,3.55,51.17,51.17,0,0,1-8.65-.08c-3-.28-5.13-1.13-6.44-2.56s-2.09-3.57-2.39-6.43a25.93,25.93,0,0,1,.79-9,123,123,0,0,1,4.25-13.8A231.46,231.46,0,0,0,302,170.83l17.65-.43a226.7,226.7,0,0,1-13.76,50.95c-1.78,4.47-2.44,7.87-1.83,10.23s2.41,3.43,5.48,3.23a14.8,14.8,0,0,0,8.87-4.1,27.55,27.55,0,0,0,7.05-10.48A221.8,221.8,0,0,0,339.21,169.92Zm-2.54,79.18a219.44,219.44,0,0,0,28.95-79.82l29.49-.71q8.2-.19,12.23,1.66c2.66,1.22,4.59,3.58,5.63,7s1,7.69-.42,12.67a33.33,33.33,0,0,1-5.48,11.32,33.93,33.93,0,0,1-8.33,7.89,30.1,30.1,0,0,1-7.41,3.41,8.37,8.37,0,0,1,3.45,2.6,11.9,11.9,0,0,1,1.09,3.89,19,19,0,0,1,.32,4.6,158.86,158.86,0,0,1-3.2,21.11l-20,1.54a163.25,163.25,0,0,0,2.87-22.56c.2-3,0-4.94-.58-5.81a3.77,3.77,0,0,0-3.58-1.57l-1.57.09a222.65,222.65,0,0,1-15.7,31.29Zm38.94-47.62,7.46-.35a25.11,25.11,0,0,0,5-1.29,7.81,7.81,0,0,0,3.65-2.61,12.25,12.25,0,0,0,2.47-4.64c.73-2.56.65-4.51-.17-5.85s-2.87-1.94-6.1-1.83l-7.77.28Q378.24,193.38,375.61,201.48Zm48.77-33.62,47.42-1.15q-1.35,8.14-3.43,16.22L438.68,184q-1.56,6.15-3.52,12.24L462.7,195q-2.54,7.67-5.74,15.23l-27.54,1.53q-3.1,7.47-6.84,14.79l30.55-2q-4.29,8.25-9.43,16.29l-48.28,3.73A205.84,205.84,0,0,0,424.38,167.86Z" transform="translate(-17.24)" style="fill:url(#Sfumatura_senza_nome_27)"/></g></g></svg>