<?xml version="1.0" encoding="utf-8"?>
<!-- Generator: Adobe Illustrator 26.3.1, SVG Export Plug-In . SVG Version: 6.00 Build 0)  -->
<svg version="1.1" id="Livello_1" xmlns="http://www.w3.org/2000/svg" xmlns:xlink="http://www.w3.org/1999/xlink" x="0px" y="0px"
	 viewBox="0 0 100.99 30.76" style="enable-background:new 0 0 100.99 30.76;" xml:space="preserve">
<style type="text/css">
	.st0{fill:#FFFFFF;}
	.st1{fill:#CCCCCC;}
	.st2{fill:#1D1D1B;}
	.st3{fill:none;stroke:#1D1D1B;stroke-width:0.2328;stroke-miterlimit:10;}
	.st4{fill:#1A1A1A;}
</style>
<g>
	<path d="M2.55,17.62c0.58,0,1.17-0.01,1.75,0c0.2,0.01,0.37,0.15,0.45,0.33c0.21,0.44,0.38,0.9,0.39,1.4
		c0.01,0.63,0.07,1.26-0.11,1.89c-0.11,0.41-0.09,0.87-0.07,1.31c0.03,0.43,0.11,0.87,0.21,1.29c0.07,0.28,0.21,0.54,0.3,0.82
		c0.16,0.49,0.57,0.67,1.02,0.66c0.35-0.01,0.67-0.09,0.96-0.31c0.16-0.12,0.29-0.24,0.37-0.44c0.28-0.69,0.36-1.41,0.48-2.14
		c-0.2-0.76,0.21-1.55-0.13-2.3c-0.08-0.68-0.08-1.37,0.06-2.04c0.11-0.53,0.16-1.06-0.03-1.59c-0.08-0.23-0.08-0.48-0.01-0.72
		c0.06-0.19,0.07-0.38,0.01-0.57c-0.03-0.09-0.05-0.19-0.05-0.29c-0.03-0.53,0.15-1.04,0.02-1.59c-0.11-0.46-0.05-0.97-0.05-1.46
		c0-0.54-0.05-1.08,0.02-1.6c0.08-0.53,0.11-1.06,0.15-1.59c0.03-0.39,0.04-0.78-0.07-1.16c-0.1-0.33-0.07-0.67-0.08-1.02
		c-0.01-0.54,0.13-1.06,0.06-1.6C8.17,4.43,8.19,3.94,8.17,3.45C8.13,2.57,8.24,1.7,8.26,0.83c0.01-0.52,0.41-0.8,0.87-0.82
		c0.24-0.01,0.49-0.02,0.73,0c0.54,0.06,1.07,0.05,1.61,0.01C11.9,0,12.34,0.05,12.78,0.09c0.21,0.02,0.34,0.18,0.4,0.37
		c0.06,0.19,0.14,0.38,0.12,0.56c-0.04,0.29-0.06,0.57,0,0.87c0.11,0.57,0.19,1.16,0,1.73c0.1,0.48,0.06,0.95-0.06,1.43
		c-0.04,0.18-0.02,0.4,0.05,0.57c0.15,0.43,0.15,0.86,0.03,1.3c-0.12,0.44-0.12,0.86,0.01,1.3c0.07,0.23,0.04,0.48,0.05,0.72
		c0.01,0.54,0.01,1.07,0.01,1.61c0,0.15,0.02,0.3-0.02,0.44c-0.19,0.62-0.25,1.24-0.03,1.87c0.04,0.12-0.03,0.28-0.07,0.42
		c-0.11,0.48-0.13,0.97,0.03,1.44c0.15,0.43,0.17,0.89,0.06,1.3c-0.13,0.49,0.06,0.97-0.09,1.43c-0.03,0.09-0.03,0.2-0.01,0.29
		c0.21,0.97,0.17,1.93,0,2.9c-0.03,0.14-0.06,0.3-0.03,0.43c0.14,0.78-0.1,1.56-0.05,2.34c0.02,0.28-0.09,0.57-0.15,0.86
		c-0.06,0.29-0.15,0.57-0.17,0.86c-0.02,0.35-0.1,0.67-0.29,0.96c-0.08,0.12-0.17,0.26-0.19,0.4c-0.12,0.88-0.7,1.48-1.24,2.11
		c-0.16,0.18-0.34,0.34-0.51,0.52c-0.37,0.39-0.68,0.89-1.21,1.04c-0.7,0.2-1.36,0.54-2.12,0.49c-0.24-0.02-0.49,0.03-0.72,0.08
		c-0.25,0.04-0.48,0.04-0.72-0.02c-0.28-0.07-0.58-0.08-0.86-0.16c-0.33-0.08-0.67-0.16-0.97-0.32c-0.86-0.47-1.66-1.02-2.27-1.81
		c-0.54-0.7-0.96-1.44-1.22-2.3c-0.25-0.81-0.28-1.62-0.35-2.45c-0.04-0.53,0.07-1.07-0.13-1.6c-0.05-0.13-0.04-0.3,0-0.43
		c0.17-0.57,0.16-1.17,0.1-1.74c-0.06-0.59,0.05-1.16,0.07-1.75c0.01-0.29,0.28-0.52,0.6-0.53C1.38,17.61,1.97,17.62,2.55,17.62
		C2.55,17.62,2.55,17.62,2.55,17.62z"/>
	<path d="M32.89,0.05c-0.03,0,0.07,0,0.17,0c1.86-0.1,3.7,0.16,5.54,0.34c0.58,0.06,1.15,0.18,1.72,0.31
		c0.76,0.17,1.51,0.36,2.26,0.58c0.46,0.14,0.94,0.24,1.34,0.56c0.18,0.15,0.42,0.26,0.64,0.33c1.1,0.34,1.93,1.12,2.83,1.77
		c0.08,0.06,0.15,0.13,0.21,0.2c0.66,0.84,1.38,1.64,1.82,2.63c0.06,0.14,0.01,0.27-0.17,0.33c-0.95,0.37-1.9,0.75-2.88,1.05
		c-0.93,0.29-1.84,0.64-2.77,0.95c-0.6,0.2-1.21,0.37-1.82,0.56c-0.22,0.07-0.38-0.02-0.51-0.18C41,9.15,40.79,8.74,40.46,8.47
		c-0.33-0.26-0.81-0.34-1.18-0.57c-0.46-0.29-0.95-0.5-1.47-0.63c-0.14-0.04-0.28-0.12-0.42-0.12c-0.79,0-1.54-0.26-2.32-0.26
		c-0.78-0.01-1.55-0.15-2.34-0.08c-0.49,0.04-0.98,0.02-1.47,0c-0.59-0.02-1.17,0-1.73,0.17c-0.6-0.17-1.16,0.1-1.73,0.18
		c-0.64,0.09-1.2,0.39-1.71,0.78c-0.5,0.37-0.66,1.14-0.39,1.71c0.32,0.67,0.83,1.06,1.54,1.24c0.71,0.19,1.45,0.23,2.14,0.5
		c0.13,0.05,0.29,0.03,0.43,0.03c0.78,0.02,1.56,0.04,2.33,0.22c0.37,0.08,0.77-0.1,1.15,0.07c0.88-0.05,1.73,0.19,2.6,0.24
		c0.29,0.01,0.58,0.09,0.87,0.09c0.68,0,1.37-0.04,2.01,0.26c0.58,0.05,1.16,0.05,1.73,0.21c0.33,0.09,0.69,0.07,0.99,0.21
		c0.41,0.18,0.85,0.23,1.27,0.35c0.6,0.17,1.24,0.22,1.78,0.62c0.26,0.2,0.66,0.09,0.96,0.32c0.77,0.59,1.74,0.89,2.45,1.58
		c0.1,0.1,0.25,0.17,0.34,0.28c0.64,0.8,1.29,1.61,1.58,2.61c0.13,0.46,0.31,0.93,0.35,1.41c0.06,0.63,0.02,1.27,0,1.9
		c-0.03,0.68-0.07,1.36-0.29,2.02c-0.19,0.56-0.42,1.08-0.75,1.58c-0.82,1.24-1.91,2.2-3.13,3.03c-0.98,0.3-1.81,0.94-2.84,1.14
		c-0.77,0.15-1.52,0.37-2.27,0.59c-0.33,0.1-0.66,0.16-1,0.16c-0.34,0-0.68,0.03-1.01,0.15c-0.13,0.05-0.28,0.08-0.43,0.09
		c-1.16,0.05-2.32,0.23-3.49,0.13c-0.24-0.02-0.49,0.01-0.72,0.06c-0.2,0.04-0.38,0.03-0.57-0.01c-0.19-0.04-0.4-0.1-0.58-0.07
		c-0.88,0.18-1.75-0.03-2.62-0.02c-0.83,0.01-1.66-0.04-2.49-0.08c-0.19-0.01-0.39-0.04-0.57-0.1c-0.75-0.2-1.52-0.32-2.29-0.47
		c-0.61-0.12-1.23-0.27-1.82-0.5c-0.59-0.23-1.2-0.4-1.8-0.61c-0.28-0.1-0.57-0.18-0.81-0.34c-0.65-0.42-1.35-0.77-1.96-1.25
		c-0.5-0.4-0.98-0.8-1.34-1.34c-0.13-0.2-0.29-0.4-0.46-0.57c-0.66-0.62-1.03-1.41-1.32-2.25c-0.07-0.18-0.12-0.37-0.18-0.56
		c-0.1-0.32-0.04-0.5,0.22-0.58c0.6-0.19,1.2-0.4,1.82-0.55c0.33-0.08,0.66-0.1,0.99-0.2c0.42-0.12,0.89-0.06,1.3-0.19
		c0.42-0.13,0.84-0.23,1.27-0.3c0.48-0.07,0.94-0.23,1.42-0.35c0.19-0.05,0.38-0.1,0.57-0.13c0.26-0.04,0.52,0.03,0.63,0.27
		c0.25,0.54,0.69,0.94,0.99,1.45c0.26,0.44,0.61,0.75,1.1,0.9c0.05,0.01,0.1,0.02,0.14,0.05c0.71,0.59,1.56,0.76,2.44,0.85
		c0.63,0.07,1.22,0.34,1.86,0.37c0.19,0.01,0.37,0.04,0.57,0.01c0.19-0.03,0.39-0.04,0.58-0.02c2.03,0.24,2.77,0.25,4.95,0.05
		c0.79,0.12,1.55-0.06,2.3-0.27c0.48,0.14,0.84-0.12,1.22-0.34c0.25-0.14,0.54-0.23,0.81-0.33c0.45-0.16,0.71-0.51,0.91-0.91
		c0.09-0.18,0.1-0.37,0.04-0.57c-0.14-0.42-0.36-0.8-0.64-1.15c-0.15-0.2-0.34-0.36-0.58-0.43c-0.65-0.19-1.26-0.49-1.96-0.56
		c-0.68-0.07-1.34-0.22-2.03-0.26c-0.53-0.03-1.06-0.19-1.59-0.24c-0.53-0.05-1.07-0.07-1.6-0.19c-0.28-0.06-0.58-0.08-0.87-0.09
		c-0.59-0.01-1.16-0.07-1.74-0.2c-0.57-0.12-1.16-0.12-1.75-0.15c-0.49-0.03-0.97-0.03-1.45-0.2c-0.18-0.06-0.38-0.09-0.57-0.08
		c-0.41,0.02-0.76-0.13-1.13-0.24c-0.98-0.29-1.98-0.52-2.94-0.86c-1.35-0.48-2.6-1.1-3.63-2.11c-0.21-0.21-0.42-0.4-0.58-0.65
		c-0.13-0.2-0.27-0.41-0.44-0.58c-0.51-0.5-0.72-1.15-0.96-1.79c-0.08-0.22-0.07-0.48-0.08-0.72c-0.03-0.63,0.01-1.27-0.12-1.9
		c-0.03-0.14-0.04-0.3,0-0.43c0.11-0.38,0.09-0.78,0.15-1.16c0.07-0.38,0.25-0.74,0.34-1.12c0.25-1.04,0.95-1.79,1.58-2.59
		c0.82-0.61,1.5-1.39,2.48-1.78c0.22-0.09,0.43-0.23,0.61-0.39c0.42-0.37,0.94-0.54,1.45-0.66c0.8-0.19,1.62-0.33,2.4-0.63
		c0.73-0.01,1.42-0.38,2.16-0.32c0.1,0.01,0.2-0.01,0.29-0.02C30.59-0.01,30.84-0.02,32.89,0.05z"/>
	<path d="M64.11,10.29c-0.1,0.56,0.03,1.08-0.07,1.6c-0.08,0.45,0.06,0.94,0.07,1.41c0.01,0.33,0,0.67-0.06,0.99
		c-0.05,0.24-0.03,0.47,0.01,0.7c0.05,0.24,0.06,0.47-0.02,0.7c-0.11,0.32-0.12,0.66-0.08,0.99c0.07,0.57,0.2,1.12-0.01,1.69
		c-0.04,0.12-0.02,0.29,0.02,0.42c0.27,0.84,0.17,1.7,0.07,2.55c-0.05,0.47-0.13,0.93,0.03,1.4c0.06,0.17,0.03,0.38,0.03,0.57
		c0,0.76-0.01,1.52-0.01,2.28c0,0.53-0.06,1.05-0.35,1.51c-0.24,0.91-0.94,1.52-1.5,2.22c-0.06,0.07-0.14,0.14-0.22,0.18
		c-0.73,0.35-1.39,0.83-2.19,1.01c-0.93,0.22-1.87,0.38-2.81,0.03c-0.49-0.18-1.04-0.03-1.51-0.35c-0.43-0.29-0.91-0.51-1.36-0.77
		c-0.3-0.17-0.53-0.41-0.69-0.7c-0.07-0.12-0.14-0.25-0.19-0.38c-0.1-0.27-0.19-0.54-0.26-0.81c-0.09-0.37-0.16-0.74-0.27-1.1
		c-0.11-0.36-0.08-0.75-0.11-1.13c-0.06-0.76-0.06-1.51-0.16-2.27c-0.1-0.75-0.03-1.52-0.03-2.28c0-0.85,0.04-1.71-0.01-2.56
		c-0.04-0.77-0.03-1.52,0.1-2.27c0.06-0.38,0.08-0.75-0.02-1.13c-0.11-0.42-0.1-0.84,0.02-1.27c0.08-0.27,0.1-0.56,0.1-0.84
		c0-1.19-0.01-2.38-0.01-3.57c0-0.52,0.02-1.05-0.01-1.57c-0.06-1.11,0.19-2.17,0.36-3.25c0.03-0.18,0.11-0.36,0.2-0.53
		c0.13-0.25,0.3-0.48,0.43-0.74c0.52-1.04,1.38-1.66,2.48-1.99c0.18-0.05,0.37-0.09,0.55-0.17c0.27-0.11,0.54-0.11,0.83-0.11
		c0.71,0,1.41,0.13,2.12,0.14c0.57,0,1.15,0.15,1.66,0.38c0.94,0.41,1.7,1.04,2.09,2.03c0.02,0.04,0.03,0.09,0.05,0.13
		c0.43,1.09,0.82,3.08,0.75,4.18C64.07,8.53,64.04,9.43,64.11,10.29z M57.34,19.3c0,0.81,0.01,1.62,0,2.42
		c-0.01,0.57,0.11,1.13,0.01,1.71c-0.05,0.29,0.11,0.56,0.28,0.79c0.18,0.23,0.4,0.42,0.72,0.39c0.34-0.02,0.74-0.38,0.81-0.71
		c0.03-0.14,0.06-0.28,0.07-0.42c0.01-0.47,0.02-0.95,0.01-1.43c-0.01-0.62-0.06-1.23,0-1.85c0.06-0.61,0.07-1.24,0.04-1.85
		c-0.03-0.58-0.01-1.14,0.08-1.71c0.02-0.14,0.08-0.29,0.05-0.42c-0.2-0.75-0.04-1.52-0.07-2.27c-0.02-0.48-0.04-0.94,0.11-1.41
		c0.08-0.26,0.06-0.57,0.01-0.84c-0.07-0.33-0.11-0.63-0.02-0.97c0.07-0.26,0.06-0.58-0.03-0.84c-0.18-0.56-0.21-1.12-0.21-1.69
		c0-0.54-0.22-1.01-0.37-1.51c-0.01-0.04-0.07-0.07-0.1-0.1c-0.19-0.23-0.72-0.21-0.89,0.04c-0.31,0.44-0.47,0.94-0.49,1.46
		c-0.03,0.85,0.05,1.72-0.03,2.56c-0.08,0.85,0.16,1.7-0.01,2.55c-0.02,0.09,0,0.19,0.03,0.28c0.15,0.47,0.14,0.92,0.04,1.4
		c-0.08,0.42-0.1,0.86-0.07,1.28C57.38,17.21,57.32,18.26,57.34,19.3z"/>
	<path d="M83.63,0.05c-0.03,0,0.07,0,0.17,0c1.86-0.1,3.7,0.16,5.54,0.34c0.58,0.06,1.16,0.18,1.72,0.31
		c0.76,0.17,1.51,0.36,2.26,0.58c0.46,0.14,0.94,0.24,1.34,0.56c0.18,0.15,0.42,0.26,0.65,0.33c1.1,0.34,1.93,1.12,2.83,1.77
		c0.08,0.06,0.15,0.13,0.21,0.2c0.66,0.84,1.38,1.64,1.82,2.63c0.06,0.14,0.01,0.27-0.17,0.33c-0.96,0.37-1.9,0.75-2.88,1.05
		c-0.93,0.29-1.84,0.64-2.77,0.95c-0.6,0.2-1.21,0.37-1.82,0.56c-0.22,0.07-0.39-0.02-0.51-0.18c-0.28-0.34-0.49-0.76-0.82-1.02
		c-0.34-0.26-0.81-0.34-1.18-0.57c-0.46-0.29-0.95-0.5-1.47-0.63c-0.14-0.04-0.28-0.12-0.42-0.12c-0.79,0-1.54-0.26-2.32-0.26
		c-0.78-0.01-1.55-0.15-2.34-0.08c-0.48,0.04-0.98,0.02-1.46,0c-0.59-0.02-1.17,0-1.74,0.17c-0.6-0.17-1.16,0.1-1.73,0.18
		c-0.64,0.09-1.2,0.39-1.72,0.78c-0.5,0.37-0.66,1.14-0.39,1.71c0.32,0.67,0.83,1.06,1.54,1.24c0.71,0.19,1.45,0.23,2.14,0.5
		c0.13,0.05,0.29,0.03,0.44,0.03c0.78,0.02,1.56,0.04,2.33,0.22c0.37,0.08,0.77-0.1,1.15,0.07c0.88-0.05,1.73,0.19,2.6,0.24
		c0.29,0.01,0.58,0.09,0.87,0.09c0.68,0,1.37-0.04,2.01,0.26c0.58,0.05,1.16,0.05,1.73,0.21c0.33,0.09,0.69,0.07,0.99,0.21
		c0.41,0.18,0.85,0.23,1.26,0.35c0.6,0.17,1.24,0.22,1.78,0.62c0.26,0.2,0.67,0.09,0.96,0.32c0.77,0.59,1.74,0.89,2.45,1.58
		c0.11,0.1,0.25,0.17,0.34,0.28c0.64,0.8,1.29,1.61,1.58,2.61c0.13,0.46,0.31,0.93,0.35,1.41c0.06,0.63,0.02,1.27,0,1.9
		c-0.03,0.68-0.07,1.36-0.29,2.02c-0.19,0.56-0.42,1.08-0.75,1.58c-0.83,1.24-1.91,2.2-3.13,3.03c-0.98,0.3-1.81,0.94-2.84,1.14
		c-0.76,0.15-1.52,0.37-2.26,0.59c-0.33,0.1-0.66,0.16-1.01,0.16c-0.34,0-0.68,0.03-1.01,0.15c-0.14,0.05-0.29,0.08-0.43,0.09
		c-1.16,0.05-2.32,0.23-3.49,0.13c-0.24-0.02-0.49,0.01-0.72,0.06c-0.2,0.04-0.38,0.03-0.57-0.01c-0.19-0.04-0.4-0.1-0.58-0.07
		c-0.88,0.18-1.75-0.03-2.62-0.02c-0.83,0.01-1.66-0.04-2.49-0.08c-0.19-0.01-0.39-0.04-0.57-0.1c-0.75-0.2-1.52-0.32-2.29-0.47
		c-0.61-0.12-1.23-0.27-1.82-0.5c-0.59-0.23-1.2-0.4-1.8-0.61c-0.27-0.1-0.56-0.18-0.8-0.34c-0.65-0.42-1.35-0.77-1.96-1.25
		c-0.5-0.4-0.98-0.8-1.34-1.34c-0.13-0.2-0.29-0.4-0.46-0.57c-0.67-0.62-1.03-1.41-1.32-2.25c-0.07-0.18-0.12-0.37-0.18-0.56
		c-0.1-0.32-0.04-0.5,0.23-0.58c0.6-0.19,1.2-0.4,1.82-0.55c0.33-0.08,0.66-0.1,1-0.2c0.41-0.12,0.88-0.06,1.29-0.19
		c0.42-0.13,0.84-0.23,1.27-0.3c0.48-0.07,0.94-0.23,1.41-0.35c0.19-0.05,0.38-0.1,0.57-0.13c0.26-0.04,0.52,0.03,0.63,0.27
		c0.25,0.54,0.69,0.94,0.99,1.45c0.26,0.44,0.61,0.75,1.11,0.9c0.05,0.01,0.1,0.02,0.14,0.05c0.71,0.59,1.56,0.76,2.44,0.85
		c0.62,0.07,1.21,0.34,1.86,0.37c0.19,0.01,0.37,0.04,0.57,0.01c0.19-0.03,0.39-0.04,0.58-0.02c2.03,0.24,2.77,0.25,4.95,0.05
		c0.79,0.12,1.55-0.06,2.3-0.27c0.48,0.14,0.84-0.12,1.22-0.34c0.25-0.14,0.54-0.23,0.81-0.33c0.45-0.16,0.71-0.51,0.91-0.91
		c0.09-0.18,0.1-0.37,0.03-0.57c-0.14-0.42-0.36-0.8-0.63-1.15c-0.15-0.2-0.35-0.36-0.58-0.43c-0.65-0.19-1.26-0.49-1.96-0.56
		c-0.68-0.07-1.34-0.22-2.03-0.26c-0.53-0.03-1.05-0.19-1.59-0.24c-0.54-0.05-1.07-0.07-1.6-0.19c-0.28-0.06-0.58-0.08-0.87-0.09
		c-0.59-0.01-1.16-0.07-1.74-0.2c-0.57-0.12-1.16-0.12-1.75-0.15c-0.49-0.03-0.97-0.03-1.44-0.2c-0.18-0.06-0.38-0.09-0.58-0.08
		c-0.4,0.02-0.76-0.13-1.13-0.24c-0.98-0.29-1.97-0.52-2.94-0.86c-1.34-0.48-2.6-1.1-3.63-2.11c-0.21-0.21-0.42-0.4-0.58-0.65
		c-0.13-0.2-0.27-0.41-0.44-0.58c-0.51-0.5-0.72-1.15-0.96-1.79c-0.08-0.22-0.07-0.48-0.08-0.72c-0.03-0.63,0.01-1.27-0.12-1.9
		c-0.03-0.14-0.04-0.3,0-0.43c0.11-0.38,0.09-0.78,0.16-1.16c0.07-0.38,0.25-0.74,0.34-1.12c0.24-1.04,0.95-1.79,1.58-2.59
		c0.82-0.61,1.5-1.39,2.48-1.78c0.22-0.09,0.43-0.23,0.62-0.39c0.42-0.37,0.94-0.54,1.45-0.66c0.8-0.19,1.62-0.33,2.4-0.63
		c0.73-0.01,1.41-0.38,2.16-0.32c0.1,0.01,0.19-0.01,0.29-0.02C81.33-0.01,81.58-0.02,83.63,0.05z"/>
</g>
</svg>
