<?xml version="1.0" encoding="utf-8"?>
<!-- Generator: Adobe Illustrator 26.3.1, SVG Export Plug-In . SVG Version: 6.00 Build 0)  -->
<svg version="1.1" id="Livello_1" xmlns="http://www.w3.org/2000/svg" xmlns:xlink="http://www.w3.org/1999/xlink" x="0px" y="0px"
	 viewBox="0 0 110.35 31.28" style="enable-background:new 0 0 110.35 31.28;" xml:space="preserve">
<style type="text/css">
	.st0{fill:#FFFFFF;}
	.st1{fill:#CCCCCC;}
	.st2{fill:#1D1D1B;}
	.st3{fill:none;stroke:#1D1D1B;stroke-width:0.2328;stroke-miterlimit:10;}
	.st4{fill:#1A1A1A;}
</style>
<g>
	<path d="M8,21.22c-0.04-0.58,0.06-1.11-0.11-1.62c0.18-0.7,0.1-1.42,0.07-2.13C7.93,16.76,8,16.05,7.99,15.34
		c-0.02-0.95,0.02-1.9,0.03-2.85c0-0.14,0.02-0.29-0.02-0.43c-0.24-0.75-0.14-1.5-0.01-2.25c0.06-0.37,0.08-0.77,0.03-1.14
		C7.89,7.78,7.98,6.89,8,5.99c0-0.19,0.04-0.4-0.02-0.57c-0.22-0.6,0.06-1.23-0.13-1.83C7.99,2.76,7.88,1.9,8.04,1.06
		c0.02-0.12,0.16-0.22,0.31-0.2c0.24,0.02,0.5,0.1,0.71,0.03c0.65-0.21,1.31-0.13,1.97-0.08c0.52,0.04,1.03-0.08,1.55,0.03
		c0.31,0.07,0.65-0.05,0.98-0.06c0.07,0,0.2,0.1,0.21,0.17c0.1,0.7,0.18,1.41,0.26,2.11c-0.23,0.54,0.03,1.12-0.15,1.67
		c-0.1,0.31-0.08,0.66,0.03,0.98c0.12,0.33,0.13,0.64,0.02,0.98c-0.06,0.18-0.1,0.37-0.09,0.56c0.02,0.52,0.14,1.04,0.1,1.55
		c-0.04,0.53-0.1,1.03,0.03,1.55c0.07,0.28,0.03,0.56-0.04,0.84c-0.07,0.27-0.11,0.56-0.1,0.84c0.01,0.28,0.13,0.56,0.13,0.84
		c0,0.28-0.11,0.56-0.13,0.84c-0.02,0.23,0,0.48,0.07,0.7c0.18,0.51,0.13,1.03,0.11,1.55c-0.02,0.32-0.12,0.63-0.04,0.97
		c0.07,0.31-0.01,0.64,0.04,0.97c0.07,0.56,0.03,1.14,0.03,1.71c0,0.71,0.01,1.43-0.02,2.14c-0.03,0.71,0.05,1.42-0.16,2.12
		c-0.07,0.22-0.07,0.47-0.06,0.71c0.03,0.43-0.02,0.84-0.14,1.26c-0.08,0.26-0.02,0.56-0.06,0.83c-0.07,0.43-0.26,0.81-0.46,1.19
		c-0.13,0.25-0.33,0.47-0.44,0.73c-0.59,1.43-1.84,1.96-3.2,2.35c-0.68,0.2-1.38,0.34-2.1,0.31c-0.91-0.04-1.78-0.24-2.64-0.5
		c-0.27-0.08-0.53-0.21-0.8-0.31c-0.88-0.36-1.76-0.73-2.39-1.49c-0.73-0.44-1.1-1.16-1.49-1.87c-0.12-0.21-0.13-0.47,0.02-0.68
		c0.27-0.39,0.53-0.78,0.92-1.08c0.49-0.37,0.94-0.79,1.34-1.26c0.37-0.43,0.86-0.74,1.19-1.22c0.11-0.16,0.37-0.1,0.45,0.09
		c0.19,0.43,0.38,0.87,0.57,1.3c0.19,0.45,0.54,0.78,0.91,1.07c0.11,0.08,0.26,0.13,0.39,0.14c1.01,0.09,1.64-0.36,1.82-1.37
		c0.09-0.51,0.21-1.02,0.28-1.54C8.05,22.11,8,21.63,8,21.22z"/>
	<path d="M33.59,0.03c-0.03,0,0.07,0,0.17,0c1.86-0.1,3.7,0.16,5.54,0.34c0.58,0.06,1.15,0.18,1.72,0.31
		c0.76,0.17,1.51,0.36,2.26,0.58c0.46,0.14,0.94,0.24,1.34,0.56c0.18,0.15,0.42,0.26,0.64,0.33c1.1,0.34,1.93,1.12,2.83,1.77
		c0.08,0.06,0.15,0.13,0.21,0.2c0.66,0.84,1.38,1.64,1.82,2.63c0.06,0.14,0.01,0.27-0.17,0.33c-0.95,0.37-1.9,0.75-2.88,1.05
		c-0.93,0.29-1.84,0.64-2.77,0.95c-0.6,0.2-1.21,0.37-1.82,0.56c-0.22,0.07-0.38-0.02-0.51-0.18c-0.28-0.34-0.49-0.76-0.82-1.02
		c-0.33-0.26-0.81-0.34-1.18-0.57c-0.46-0.29-0.95-0.5-1.47-0.63c-0.14-0.04-0.28-0.12-0.42-0.12c-0.79,0-1.54-0.26-2.32-0.26
		C35,6.88,34.23,6.74,33.44,6.8c-0.49,0.04-0.98,0.02-1.47,0c-0.59-0.02-1.17,0-1.73,0.17c-0.6-0.17-1.16,0.1-1.73,0.18
		c-0.64,0.09-1.2,0.39-1.71,0.78c-0.5,0.37-0.66,1.14-0.39,1.71c0.32,0.67,0.83,1.06,1.54,1.24c0.71,0.19,1.45,0.23,2.14,0.5
		c0.13,0.05,0.29,0.03,0.43,0.03c0.78,0.02,1.56,0.04,2.33,0.22c0.37,0.08,0.77-0.1,1.15,0.07c0.88-0.05,1.73,0.19,2.6,0.24
		c0.29,0.01,0.58,0.09,0.87,0.09c0.68,0,1.37-0.04,2.01,0.26c0.58,0.05,1.16,0.05,1.73,0.21c0.33,0.09,0.69,0.07,0.99,0.21
		c0.41,0.18,0.85,0.23,1.27,0.35c0.6,0.17,1.24,0.22,1.78,0.62c0.26,0.2,0.66,0.09,0.96,0.32c0.77,0.59,1.74,0.89,2.45,1.58
		c0.1,0.1,0.25,0.17,0.34,0.28c0.64,0.8,1.29,1.61,1.58,2.61c0.13,0.46,0.31,0.93,0.35,1.41c0.06,0.63,0.02,1.27,0,1.9
		c-0.03,0.68-0.07,1.36-0.29,2.02c-0.19,0.56-0.42,1.08-0.75,1.58c-0.82,1.24-1.91,2.2-3.13,3.03c-0.98,0.3-1.81,0.94-2.84,1.14
		c-0.77,0.15-1.52,0.37-2.27,0.59c-0.33,0.1-0.66,0.16-1,0.16c-0.34,0-0.68,0.03-1.01,0.15c-0.13,0.05-0.28,0.08-0.43,0.09
		c-1.16,0.05-2.32,0.23-3.49,0.13c-0.24-0.02-0.49,0.01-0.72,0.06c-0.2,0.04-0.38,0.03-0.57-0.01c-0.19-0.04-0.4-0.1-0.58-0.07
		c-0.88,0.18-1.75-0.03-2.62-0.02c-0.83,0.01-1.66-0.04-2.49-0.08c-0.19-0.01-0.39-0.04-0.57-0.1c-0.75-0.2-1.52-0.32-2.29-0.47
		c-0.61-0.12-1.23-0.27-1.82-0.5c-0.59-0.23-1.2-0.4-1.8-0.61c-0.28-0.1-0.57-0.18-0.81-0.34c-0.65-0.42-1.35-0.77-1.96-1.25
		c-0.5-0.4-0.98-0.8-1.34-1.34c-0.13-0.2-0.29-0.4-0.46-0.57c-0.66-0.62-1.03-1.41-1.32-2.25c-0.07-0.18-0.12-0.37-0.18-0.56
		c-0.1-0.32-0.04-0.5,0.22-0.58c0.6-0.19,1.2-0.4,1.82-0.55c0.33-0.08,0.66-0.1,0.99-0.2c0.42-0.12,0.89-0.06,1.3-0.19
		c0.42-0.13,0.84-0.23,1.27-0.3c0.48-0.07,0.94-0.23,1.42-0.35c0.19-0.05,0.38-0.1,0.57-0.13c0.26-0.04,0.52,0.03,0.63,0.27
		c0.25,0.54,0.69,0.94,0.99,1.45c0.26,0.44,0.61,0.75,1.1,0.9c0.05,0.01,0.1,0.02,0.14,0.05c0.71,0.59,1.56,0.76,2.44,0.85
		c0.63,0.07,1.22,0.34,1.86,0.37c0.19,0.01,0.37,0.04,0.57,0.01c0.19-0.03,0.39-0.04,0.58-0.02c2.03,0.24,2.77,0.25,4.95,0.05
		c0.79,0.12,1.55-0.06,2.3-0.27c0.48,0.14,0.84-0.12,1.22-0.34c0.25-0.14,0.54-0.23,0.81-0.33c0.45-0.16,0.71-0.51,0.91-0.91
		c0.09-0.18,0.1-0.37,0.04-0.57c-0.14-0.42-0.36-0.8-0.64-1.15c-0.15-0.2-0.34-0.36-0.58-0.43c-0.65-0.19-1.26-0.49-1.96-0.56
		c-0.68-0.07-1.34-0.22-2.03-0.26c-0.53-0.03-1.06-0.19-1.59-0.24c-0.53-0.05-1.07-0.07-1.6-0.19c-0.28-0.06-0.58-0.08-0.87-0.09
		c-0.59-0.01-1.16-0.07-1.74-0.2c-0.57-0.12-1.16-0.12-1.75-0.15c-0.49-0.03-0.97-0.03-1.45-0.2c-0.18-0.06-0.38-0.09-0.57-0.08
		c-0.41,0.02-0.76-0.13-1.13-0.24c-0.98-0.29-1.98-0.52-2.94-0.86c-1.35-0.48-2.6-1.1-3.63-2.11c-0.21-0.21-0.42-0.4-0.58-0.65
		c-0.13-0.2-0.27-0.41-0.44-0.58c-0.51-0.5-0.72-1.15-0.96-1.79c-0.08-0.22-0.07-0.48-0.08-0.72c-0.03-0.63,0.01-1.27-0.12-1.9
		c-0.03-0.14-0.04-0.3,0-0.43c0.11-0.38,0.09-0.78,0.15-1.16c0.07-0.38,0.25-0.74,0.34-1.12c0.25-1.04,0.95-1.79,1.58-2.59
		c0.82-0.61,1.5-1.39,2.48-1.78c0.22-0.09,0.43-0.23,0.61-0.39c0.42-0.37,0.94-0.54,1.45-0.66c0.8-0.19,1.62-0.33,2.4-0.63
		c0.73-0.01,1.42-0.38,2.16-0.32c0.1,0.01,0.2-0.01,0.29-0.02C31.3-0.02,31.54-0.04,33.59,0.03z"/>
	<path d="M91.31,15.42c-0.26,2.77-0.3,3.75-1.55,6.37c-0.32,0.67-0.61,1.32-1.18,1.82c-0.14,0.13-0.25,0.3-0.34,0.47
		c-0.38,0.7-1.01,1.18-1.55,1.73c-0.51,0.51-1.08,0.98-1.73,1.33c-0.43,0.23-0.84,0.5-1.25,0.76c-1.66,1.07-3.47,1.76-5.39,2.16
		c-0.62,0.13-1.23,0.33-1.86,0.4c-0.82,0.1-1.65,0.13-2.48,0.16c-0.49,0.02-0.97-0.04-1.45,0.15c-0.23,0.09-0.48,0.04-0.72-0.04
		c-0.33-0.11-0.67-0.12-1.01-0.04c-0.53,0.13-1.06,0.13-1.58-0.07c-0.88,0.03-1.71-0.42-2.6-0.33c-0.1,0.01-0.2-0.01-0.29-0.04
		c-1.34-0.44-2.74-0.7-4.06-1.19c-0.14-0.05-0.27-0.11-0.39-0.19c-0.46-0.28-0.91-0.56-1.45-0.69c-0.49-0.12-0.75-0.62-1.21-0.8
		c-0.84-0.33-1.48-0.91-2.13-1.51c-0.39-0.36-0.72-0.8-1.19-1.06c-0.38-0.5-0.82-0.98-1.14-1.52c-0.53-0.88-1.01-1.78-1.39-2.73
		c-0.07-0.18-0.12-0.37-0.17-0.56c-0.09-0.33-0.15-0.67-0.26-0.99c-0.16-0.46-0.33-0.91-0.31-1.41c0.01-0.19-0.08-0.38-0.14-0.56
		c-0.12-0.38-0.13-0.77-0.08-1.16c0.11-0.77,0.19-1.54,0.15-2.33c-0.02-0.44,0.09-0.86,0.19-1.29c0.19-0.76,0.44-1.49,0.68-2.23
		c0.52-1.57,1.43-2.87,2.52-4.07c0.43-0.47,0.89-0.9,1.35-1.34c0.14-0.14,0.28-0.28,0.45-0.38c0.95-0.59,1.84-1.28,2.83-1.82
		c0.38-0.21,0.83-0.31,1.19-0.54c0.38-0.24,0.79-0.36,1.22-0.46c0.57-0.13,1.12-0.34,1.68-0.5c1.01-0.3,3.19-0.73,4.16-0.83
		c0.1-0.01,0.19-0.02,0.29-0.02c1.56-0.02,3.12-0.04,4.68-0.06c0.05,0,0.1,0,0.15,0c0.78,0.06,1.52,0.33,2.31,0.34
		c0.77,0.01,1.54,0.19,2.28,0.44c0.18,0.06,0.38,0.09,0.57,0.12c0.68,0.12,1.33,0.28,1.93,0.64c0.04,0.02,0.08,0.06,0.12,0.07
		c0.79,0.14,1.42,0.62,2.12,0.96c0.48,0.24,0.98,0.44,1.38,0.81c0.07,0.07,0.16,0.12,0.25,0.15c0.95,0.36,1.61,1.08,2.26,1.82
		c0.19,0.22,0.37,0.46,0.59,0.65c0.72,0.61,1.22,1.38,1.66,2.2c0.09,0.17,0.17,0.35,0.29,0.51c0.7,0.91,0.89,2.04,1.27,3.09
		c0.02,0.05,0.03,0.1,0.03,0.14c0.05,1.12,0.13,2.24,0.32,3.34C91.32,15.35,91.31,15.4,91.31,15.42z M67.87,15.75
		c0.01,0,0.02,0,0.03,0c0,0.39-0.01,0.78,0,1.17c0.03,1.08,0.03,1.08,0.33,2c0.29,0.89,0.4,1.09,1,1.75
		c0.37,0.41,0.78,0.73,1.37,0.75c0.19,0.01,0.36,0.13,0.55,0.19c0.09,0.03,0.2,0.06,0.29,0.03c0.57-0.19,1.16-0.12,1.73-0.22
		c0.48-0.08,0.96-0.25,1.27-0.65c0.73-0.94,1.28-1.96,1.35-3.18c0.02-0.29,0.01-0.58,0.02-0.88c0.01-0.44-0.06-0.9,0.04-1.31
		c0.16-0.64,0.1-1.25-0.05-1.87c-0.03-0.14-0.06-0.29-0.05-0.44c0.04-0.65-0.23-1.24-0.39-1.84c-0.1-0.38-0.32-0.69-0.61-0.97
		C73.44,9,73.76,9.22,71.92,9.1c-0.14-0.01-0.29,0.01-0.44,0c-0.66-0.03-1.22,0.32-1.83,0.47c-0.09,0.02-0.17,0.1-0.23,0.17
		c-0.67,0.72-1.32,1.44-1.29,2.53c0.01,0.24-0.09,0.48-0.13,0.71c-0.1,0.53-0.18,1.05-0.13,1.6C67.9,14.97,67.87,15.36,67.87,15.75z
		"/>
	<path d="M95.22,19.84c0.71,0,1.14,0,1.57,0c0.24,0,0.49,0.02,0.71-0.05c0.66-0.21,1.31-0.15,1.97,0c0.18,0.04,0.38,0.04,0.56,0.08
		c0.13,0.03,0.25,0.1,0.31,0.26c0.17,0.5,0.28,0.99,0.15,1.53c-0.07,0.31,0.09,0.66,0.06,0.98c-0.07,0.63,0.06,1.23,0.07,1.85
		c0.02,0.61,0.39,0.94,0.86,1.2c0.07,0.04,0.19,0.04,0.27,0.02c0.18-0.04,0.37-0.1,0.55-0.16c0.19-0.07,0.32-0.21,0.4-0.38
		c0.27-0.57,0.41-1.14,0.39-1.79c-0.02-0.81-0.06-1.61-0.31-2.39c-0.1-0.32-0.27-0.59-0.54-0.82c-0.97-0.84-2-1.61-3.11-2.27
		c-0.24-0.14-0.5-0.29-0.71-0.47c-0.5-0.45-1.03-0.82-1.62-1.15c-0.49-0.27-0.91-0.68-1.36-1.02c-0.86-0.67-1.35-1.6-1.7-2.59
		c-0.26-0.76-0.46-1.55-0.57-2.34c-0.1-0.75-0.06-1.52-0.07-2.28c-0.01-1.1,0.22-2.17,0.53-3.22c0.22-0.74,0.96-1.71,1.57-2.15
		c0.15-0.11,0.33-0.19,0.48-0.31c1.19-1,0.85-0.63,2.14-1.04c0.59-0.19,1.21-0.25,1.8-0.43c0.42-0.13,0.84,0.04,1.27-0.09
		c0.41-0.12,0.84-0.05,1.26,0.1c0.21,0.08,0.47,0.07,0.7,0.06c0.73-0.02,1.42,0.14,2.1,0.37c0.13,0.05,0.27,0.1,0.4,0.15
		c0.35,0.13,0.78,0.02,1.1,0.27c0.66,0.54,1.42,0.97,1.95,1.66c0.43,0.57,0.77,1.21,0.96,1.9c0.1,0.36,0.13,0.74,0.29,1.1
		c0.05,0.13,0.05,0.28,0.06,0.42c0.02,0.95,0.03,1.9,0.04,2.86c0,0.05-0.03,0.09-0.03,0.14c-0.01,0.1-0.17,0.31-0.25,0.32
		c-0.71,0.07-1.42,0.14-2.13,0.21c-0.4-0.25-0.84,0.01-1.26-0.08c-0.47-0.1-0.94-0.07-1.42-0.01c-0.61,0.08-1.23-0.04-1.83-0.15
		c-0.09-0.02-0.24-0.22-0.25-0.32c-0.01-0.24-0.02-0.47-0.03-0.71c-0.01-0.76-0.01-1.52-0.02-2.28c0-0.14-0.04-0.28-0.07-0.42
		c-0.04-0.18-0.33-0.44-0.51-0.45c-0.24-0.01-0.48-0.02-0.71-0.01c-0.26,0.01-0.59,0.25-0.65,0.49c-0.17,0.69-0.35,1.4-0.27,2.11
		c0.1,0.91,0.38,1.77,1.18,2.34c0.62,0.44,1.17,0.98,1.89,1.28c0.71,0.56,1.54,0.94,2.23,1.53c0.25,0.22,0.51,0.42,0.83,0.55
		c0.13,0.05,0.25,0.14,0.34,0.24c0.26,0.28,0.55,0.51,0.89,0.7c0.38,0.21,0.65,0.56,0.91,0.9c0.44,0.57,0.78,1.2,1.09,1.84
		c0.19,0.38,0.33,0.79,0.32,1.23c0,0.24,0.03,0.48,0.07,0.71c0.34,1.7,0.32,3.41,0.17,5.11c-0.08,0.9-0.34,1.77-0.78,2.58
		c-0.16,0.3-0.35,0.57-0.59,0.8c-0.87,0.82-1.5,1.3-2.6,1.72c-0.93,0.35-1.87,0.7-2.89,0.69c-0.71-0.01-1.43,0.01-2.14,0
		c-0.33,0-0.68,0.04-0.99-0.06c-0.68-0.2-1.41-0.2-2.08-0.47c-0.58-0.23-1.13-0.5-1.66-0.81c-0.21-0.12-0.38-0.31-0.59-0.4
		c-0.6-0.26-0.96-0.76-1.35-1.23c-0.25-0.3-0.41-0.64-0.51-1.01c-0.11-0.41-0.21-0.83-0.33-1.24c-0.16-0.55-0.28-1.1-0.29-1.68
		c-0.02-1.05-0.04-2.09-0.05-3.14c0-0.23,0.06-0.47,0.09-0.7c0.01-0.1,0.22-0.26,0.31-0.26C94.37,19.79,94.94,19.83,95.22,19.84z"/>
</g>
</svg>
