<?xml version="1.0" encoding="UTF-8"?><svg id="a" xmlns="http://www.w3.org/2000/svg" width="100" height="100" viewBox="0 0 100 100"><path d="M20.29,37.16v25.55h-5.4v-20.42h-.15l-5.85,3.67v-4.79l6.33-4.01h5.08Z"/><path d="M34.9,36.73c1.31,0,2.58,.22,3.8,.65s2.31,1.14,3.27,2.11c.96,.97,1.72,2.26,2.28,3.86,.56,1.6,.85,3.57,.85,5.91,0,2.17-.25,4.11-.74,5.81-.49,1.7-1.18,3.15-2.09,4.33-.91,1.19-2,2.1-3.28,2.71-1.28,.62-2.7,.93-4.29,.93-1.7,0-3.21-.33-4.52-.99s-2.36-1.56-3.15-2.71-1.27-2.43-1.44-3.86h5.33c.21,.93,.64,1.65,1.31,2.16,.67,.51,1.49,.77,2.47,.77,1.66,0,2.93-.73,3.79-2.18,.87-1.45,1.3-3.44,1.31-5.97h-.17c-.38,.75-.9,1.39-1.55,1.93-.65,.54-1.39,.95-2.23,1.24-.83,.29-1.72,.44-2.66,.44-1.51,0-2.85-.35-4.04-1.06-1.18-.71-2.12-1.68-2.8-2.93-.68-1.24-1.02-2.66-1.01-4.26,0-1.73,.39-3.27,1.19-4.61s1.92-2.4,3.35-3.16,3.1-1.14,5.01-1.14Zm.04,4.24c-.84,0-1.59,.2-2.24,.6-.65,.4-1.17,.94-1.55,1.62-.38,.68-.56,1.45-.56,2.3,0,.85,.17,1.61,.54,2.28s.88,1.21,1.53,1.6c.65,.4,1.39,.59,2.22,.59,.62,0,1.2-.12,1.73-.35s.99-.56,1.39-.97c.4-.41,.71-.89,.93-1.44,.22-.54,.34-1.13,.35-1.75,0-.82-.2-1.58-.57-2.26s-.89-1.23-1.55-1.63c-.66-.4-1.4-.61-2.22-.61Z"/><path d="M57.47,63.06c-1.76,0-3.33-.32-4.71-.97-1.38-.65-2.47-1.54-3.28-2.68-.81-1.14-1.23-2.44-1.26-3.92h5.24c.06,.99,.47,1.79,1.25,2.41s1.69,.92,2.76,.92c.85,0,1.6-.19,2.25-.57,.65-.38,1.16-.91,1.53-1.58,.37-.68,.56-1.46,.56-2.34s-.19-1.69-.57-2.37c-.38-.68-.9-1.21-1.57-1.6-.67-.38-1.43-.58-2.28-.59-.75,0-1.48,.15-2.18,.46-.7,.31-1.25,.73-1.64,1.26l-4.8-.86,1.21-13.47h15.62v4.42h-11.17l-.66,6.4h.15c.45-.63,1.13-1.16,2.03-1.57,.91-.41,1.92-.62,3.04-.62,1.54,0,2.91,.36,4.12,1.08,1.21,.72,2.16,1.72,2.86,2.98,.7,1.26,1.04,2.71,1.03,4.35,0,1.72-.39,3.25-1.19,4.58s-1.92,2.38-3.36,3.14c-1.44,.76-3.1,1.14-5,1.14Z"/><path d="M80.8,63.27c-2.15,0-3.99-.54-5.53-1.58-1.54-1.05-2.73-2.56-3.55-4.55-.83-1.99-1.24-4.38-1.23-7.17,0-2.79,.41-5.16,1.24-7.12,.83-1.96,2.01-3.46,3.55-4.48,1.54-1.03,3.38-1.54,5.52-1.54s3.98,.52,5.52,1.55c1.54,1.03,2.73,2.53,3.56,4.48s1.24,4.33,1.24,7.12c0,2.8-.41,5.2-1.24,7.19-.83,1.99-2.01,3.51-3.55,4.55s-3.38,1.57-5.53,1.57Zm0-4.48c1.46,0,2.63-.74,3.51-2.21,.87-1.47,1.31-3.68,1.3-6.62,0-1.94-.2-3.55-.59-4.84s-.95-2.26-1.67-2.91c-.72-.65-1.57-.97-2.54-.97-1.45,0-2.62,.73-3.49,2.18-.87,1.45-1.31,3.63-1.32,6.54,0,1.96,.2,3.6,.59,4.91,.39,1.31,.95,2.29,1.68,2.94,.72,.65,1.57,.98,2.54,.98Z"/></svg>