<?xml version="1.0" encoding="UTF-8"?><svg id="a" xmlns="http://www.w3.org/2000/svg" width="100" height="100" viewBox="0 0 100 100"><path d="M12.93,65.44c-.23-.23-.3-.68-.3-.99,0-2.69,1.59-6.29,4.36-8.98,2.01-2.27,5.46-4.47,5.46-10.8,0-3.83-.53-7.28-2.92-7.28-2.73,0-3.6,2.39-3.6,2.99,0,1.93,1.21,2.61,1.21,4.36,0,1.33-.53,2.24-.83,2.61l.53,1.29c.04,.08-.04,.15-.08,.11-2.8-1.4-2.99-3.56-2.99-5.46,0-3.98,2.39-6.59,6.74-6.59,3.45,0,8.6,.91,8.6,7.58,0,5.91-5.46,7.5-9.51,11.03-2.99,2.31-5.38,5.08-5.99,7.73l.08,.08c1.33-1.51,3.37-2.88,5.15-2.88s2.8,.45,4.06,.45c.87,0,1.14-.45,1.59-1.59,.87-2.2,3.07-4.32,4.47-4.32,.08,0,.08,.04,.08,.08-.64,1.21-1.63,4.24-1.63,5.3,0,1.18,.49,3.18,1.4,4.96q.04,.08-.04,.08c-.53,0-1.82-.98-2.5-.98-1.02,0-2.08,1.21-3.53,1.21-2.73,0-4.77-.8-5.15-.91-1.74-.53-2.65-.53-2.88-.53-.87,0-1.25,.46-1.25,.76s.23,.68,.23,.68h-.76Z"/><path d="M40.09,65.44c-2.54,0-9.21-1.67-9.21-14.4s6.74-14.32,9.21-14.32,9.09,1.74,9.09,14.32-6.63,14.4-9.09,14.4Zm0-28.04c-2.39,0-2.58,3.37-2.58,13.64s.15,13.72,2.58,13.72,2.46-3.37,2.46-13.72-.19-13.64-2.46-13.64Z"/><path d="M67.18,37.55c-.23,.61-2.62,5.53-2.62,12.58,0,1.82,.23,5.12,.38,6.67,.91-.04,2.16-.42,2.61-.64,.11-.04,.11,0,.15,.08l.15,.49c0,.08,0,.11-.08,.15-.3,.15-1.97,.64-2.77,.76,.61,4.05,1.63,5.91,2.16,6.97h.61v.68h-11.56v-.68h.53c.53-1.06,1.59-3.37,2.12-6.97-2.5,0-4.62-.61-5.72-.61-.3,0-1.21,.08-1.93,.23v-.76c2.31-3.71,5.3-12.96,6.44-19.63h10.12v.68h-.61Zm-7.81,12.58c0-5.91-.64-8.98-1.21-11.25h-.08c-.87,5.04-4.09,13.91-4.7,15.08,1.21,0,1.89,.15,3.07,.91,1.14,.91,1.82,1.51,2.54,1.51,.15-1.51,.38-4.51,.38-6.25Z"/><path d="M78.28,65.44c-2.54,0-9.21-1.67-9.21-14.4s6.74-14.32,9.21-14.32,9.09,1.74,9.09,14.32-6.63,14.4-9.09,14.4Zm0-28.04c-2.39,0-2.58,3.37-2.58,13.64s.15,13.72,2.58,13.72,2.46-3.37,2.46-13.72-.19-13.64-2.46-13.64Z"/></svg>