<?xml version="1.0" encoding="utf-8"?>
<!-- Generator: Adobe Illustrator 26.3.1, SVG Export Plug-In . SVG Version: 6.00 Build 0)  -->
<svg version="1.1" id="Livello_1" xmlns="http://www.w3.org/2000/svg" xmlns:xlink="http://www.w3.org/1999/xlink" x="0px" y="0px"
	 viewBox="0 0 100 100" style="enable-background:new 0 0 100 100;" xml:space="preserve">
<style type="text/css">
	.st0{fill:#FFFFFF;}
	.st1{fill:#CCCCCC;}
	.st2{fill:#1D1D1B;}
	.st3{fill:none;stroke:#1D1D1B;stroke-width:0.2328;stroke-miterlimit:10;}
	.st4{fill:#1A1A1A;}
</style>
<g>
	<path d="M9.04,63.61c-0.2,0-0.38-0.06-0.52-0.17s-0.22-0.26-0.22-0.43c0-0.37,0.24-0.63,0.73-0.78c0.92-0.23,1.69-0.45,2.31-0.67
		c0.62-0.22,1.09-0.51,1.4-0.89s0.48-0.91,0.48-1.6V43.14c0-0.66-0.18-1.16-0.54-1.49c-0.36-0.33-0.81-0.57-1.36-0.71
		c-0.55-0.14-1.14-0.26-1.77-0.35c-0.26-0.03-0.51-0.11-0.76-0.24c-0.24-0.13-0.37-0.35-0.37-0.67c0-0.29,0.12-0.51,0.37-0.67
		c0.24-0.16,0.54-0.25,0.89-0.28c1.56-0.17,2.95-0.45,4.19-0.82c1.24-0.37,2.48-0.98,3.71-1.81c0.03-0.03,0.08-0.05,0.15-0.07
		c0.07-0.01,0.15-0.02,0.24-0.02c0.17,0,0.34,0.04,0.5,0.11c0.16,0.07,0.24,0.18,0.24,0.32c-0.03,0.37-0.07,0.81-0.13,1.3
		c-0.06,0.49-0.09,1.09-0.09,1.81v19.69c0,0.63,0.17,1.12,0.5,1.47c0.33,0.35,0.81,0.63,1.45,0.84c0.63,0.22,1.42,0.45,2.38,0.71
		c0.23,0.06,0.42,0.14,0.56,0.26c0.14,0.12,0.22,0.27,0.22,0.48c0,0.38-0.22,0.56-0.65,0.56c-0.69,0-1.45-0.01-2.29-0.04
		c-0.84-0.03-1.66-0.06-2.46-0.09c-0.81-0.03-1.54-0.04-2.2-0.04c-0.69,0-1.44,0.01-2.25,0.04c-0.81,0.03-1.62,0.06-2.44,0.11
		C10.49,63.59,9.73,63.61,9.04,63.61z"/>
	<path d="M37.89,64.13c-1.81,0-3.4-0.36-4.75-1.08s-2.4-1.75-3.15-3.09c-0.75-1.34-1.12-2.94-1.12-4.82c0-1.58,0.18-3.03,0.54-4.34
		c0.36-1.31,0.81-2.47,1.36-3.48c0.55-1.01,1.1-1.88,1.66-2.61c0.56-0.73,1.03-1.3,1.4-1.71c0.69-0.78,1.59-1.6,2.7-2.48
		c1.11-0.88,2.38-1.72,3.82-2.53c1.44-0.81,2.98-1.47,4.62-1.99c0.4-0.11,0.77-0.17,1.1-0.15c0.33,0.01,0.5,0.11,0.5,0.28
		c-0.06,0.29-0.22,0.52-0.48,0.69c-0.26,0.17-0.58,0.35-0.95,0.52c-1.7,0.78-3.13,1.66-4.3,2.66c-1.17,0.99-2.25,2.24-3.26,3.73
		c-0.4,0.66-0.89,1.58-1.47,2.74c-0.58,1.17-1.07,2.48-1.49,3.95C34.21,51.91,34,53.42,34,54.98c0.03,1.58,0.28,2.92,0.75,4.02
		c0.48,1.09,1.08,1.92,1.82,2.48c0.73,0.56,1.47,0.84,2.22,0.84c0.98,0.03,1.81-0.4,2.5-1.27c0.69-0.88,1.04-2.18,1.04-3.91
		c0-0.89-0.16-1.71-0.48-2.44c-0.32-0.73-0.73-1.33-1.23-1.79s-1.06-0.69-1.66-0.69c-0.49,0-0.91,0.04-1.25,0.11
		c-0.34,0.07-0.69,0.19-1.04,0.37c-0.46,0.2-0.73,0.18-0.82-0.06c-0.09-0.24,0-0.51,0.26-0.8c0.2-0.2,0.38-0.37,0.52-0.52
		c0.14-0.14,0.32-0.29,0.52-0.43c0.43-0.32,1.08-0.68,1.94-1.1c0.86-0.42,1.69-0.63,2.46-0.63c1.04,0,2.01,0.26,2.91,0.78
		c0.91,0.52,1.64,1.22,2.2,2.09c0.56,0.88,0.84,1.86,0.84,2.96c0,1.21-0.24,2.36-0.73,3.46c-0.49,1.09-1.17,2.07-2.05,2.94
		c-0.88,0.86-1.9,1.54-3.07,2.03C40.5,63.89,39.24,64.13,37.89,64.13z"/>
	<path d="M59.44,64.09c-1.64,0-3.07-0.4-4.28-1.21c-1.21-0.81-2.21-1.88-3-3.22c-0.79-1.34-1.38-2.81-1.77-4.43
		s-0.58-3.21-0.58-4.79c0-1.64,0.19-3.3,0.58-4.97c0.39-1.67,0.99-3.2,1.79-4.6s1.86-2.52,3.15-3.37s2.82-1.27,4.58-1.27
		c1.64,0,3.07,0.4,4.28,1.21c1.21,0.81,2.21,1.88,3,3.22c0.79,1.34,1.38,2.81,1.77,4.41c0.39,1.6,0.58,3.17,0.58,4.73
		c0,1.64-0.19,3.3-0.58,4.97c-0.39,1.67-0.99,3.21-1.79,4.62c-0.81,1.41-1.84,2.55-3.11,3.41C62.79,63.66,61.25,64.09,59.44,64.09z
		 M60.13,62.41c1.01,0,1.81-0.55,2.42-1.66c0.6-1.11,1.04-2.56,1.32-4.36c0.27-1.8,0.41-3.72,0.41-5.77c0-1.56-0.1-3.09-0.3-4.6
		c-0.2-1.51-0.52-2.88-0.95-4.1s-0.97-2.2-1.6-2.91c-0.63-0.72-1.37-1.08-2.2-1.08c-1.01,0-1.81,0.55-2.4,1.66
		c-0.59,1.11-1.02,2.56-1.3,4.34c-0.27,1.79-0.41,3.7-0.41,5.74c0,1.56,0.11,3.09,0.32,4.6c0.22,1.51,0.53,2.89,0.95,4.12
		c0.42,1.24,0.93,2.22,1.56,2.94C58.56,62.05,59.29,62.41,60.13,62.41z"/>
	<path d="M81.59,64.09c-1.64,0-3.07-0.4-4.28-1.21c-1.21-0.81-2.21-1.88-3-3.22c-0.79-1.34-1.38-2.81-1.77-4.43
		c-0.39-1.61-0.58-3.21-0.58-4.79c0-1.64,0.19-3.3,0.58-4.97c0.39-1.67,0.99-3.2,1.79-4.6c0.81-1.4,1.86-2.52,3.15-3.37
		s2.82-1.27,4.58-1.27c1.64,0,3.07,0.4,4.28,1.21c1.21,0.81,2.21,1.88,3,3.22c0.79,1.34,1.38,2.81,1.77,4.41
		c0.39,1.6,0.58,3.17,0.58,4.73c0,1.64-0.19,3.3-0.58,4.97c-0.39,1.67-0.99,3.21-1.79,4.62c-0.81,1.41-1.84,2.55-3.11,3.41
		C84.94,63.66,83.4,64.09,81.59,64.09z M82.28,62.41c1.01,0,1.81-0.55,2.42-1.66c0.6-1.11,1.04-2.56,1.32-4.36
		c0.27-1.8,0.41-3.72,0.41-5.77c0-1.56-0.1-3.09-0.3-4.6c-0.2-1.51-0.52-2.88-0.95-4.1c-0.43-1.22-0.97-2.2-1.6-2.91
		c-0.63-0.72-1.37-1.08-2.2-1.08c-1.01,0-1.81,0.55-2.4,1.66c-0.59,1.11-1.02,2.56-1.3,4.34c-0.27,1.79-0.41,3.7-0.41,5.74
		c0,1.56,0.11,3.09,0.32,4.6c0.22,1.51,0.53,2.89,0.95,4.12c0.42,1.24,0.93,2.22,1.56,2.94C80.72,62.05,81.44,62.41,82.28,62.41z"/>
</g>
</svg>
