<?xml version="1.0" encoding="UTF-8"?><svg id="a" xmlns="http://www.w3.org/2000/svg" width="100" height="100" viewBox="0 0 100 100"><path d="M25.21,63.38c0,.79-.07,1.48-.21,2.06H12.63c-.14-.58-.21-1.27-.21-2.06s.07-1.51,.21-2.06h4.12c-.14-.58-.21-1.27-.21-2.06s.07-1.51,.21-2.06c-.14-.58-.21-1.27-.21-2.06s.07-1.51,.21-2.06c-.14-.58-.21-1.27-.21-2.06s.07-1.51,.21-2.06c-.14-.58-.21-1.27-.21-2.06s.07-1.51,.21-2.06h-3.09c-.14-.58-.21-1.27-.21-2.06s.07-1.51,.21-2.06h3.09c-.14-.58-.21-1.27-.21-2.06s.07-1.51,.21-2.06h4.12c.14,.55,.21,1.24,.21,2.06s-.07,1.48-.21,2.06c.14,.55,.21,1.24,.21,2.06s-.07,1.48-.21,2.06c.14,.55,.21,1.24,.21,2.06s-.07,1.48-.21,2.06c.14,.55,.21,1.24,.21,2.06s-.07,1.48-.21,2.06c.14,.55,.21,1.24,.21,2.06s-.07,1.48-.21,2.06c.14,.55,.21,1.24,.21,2.06s-.07,1.48-.21,2.06h4.13c.14,.55,.21,1.24,.21,2.06Z"/><path d="M36.08,48.94h5.15c.14,.55,.21,1.24,.21,2.06s-.07,1.48-.21,2.06h-7.22c-.14-.58-.21-1.27-.21-2.06s.07-1.51,.21-2.06h-2.06c-.14-.58-.21-1.27-.21-2.06s.07-1.51,.21-2.06c-.14-.58-.21-1.27-.21-2.06s.07-1.51,.21-2.06h3.09c-.14-.58-.21-1.27-.21-2.06s.07-1.51,.21-2.06h6.19c.14,.55,.21,1.24,.21,2.06s-.07,1.48-.21,2.06h-5.15c.14,.55,.2,1.24,.2,2.06s-.07,1.48-.2,2.06c.14,.55,.2,1.24,.2,2.06s-.07,1.48-.2,2.06Zm-2.06,12.37h7.22c.14,.55,.21,1.24,.21,2.06s-.07,1.48-.21,2.06h-7.22c-.14-.58-.21-1.27-.21-2.06s.07-1.51,.21-2.06Zm13.09-10.31c0,.79-.07,1.48-.21,2.06,.14,.55,.21,1.24,.21,2.06s-.07,1.48-.21,2.06h-1.55c.14,.55,.21,1.24,.21,2.06s-.07,1.48-.21,2.06h-4.13c-.14-.58-.21-1.27-.21-2.06s.07-1.51,.21-2.06h1.55c-.14-.58-.21-1.27-.21-2.06s.07-1.51,.21-2.06c-.14-.58-.21-1.27-.21-2.06s.07-1.51,.21-2.06h-1.55c-.14-.58-.21-1.27-.21-2.06s.07-1.51,.21-2.06c-.14-.58-.21-1.27-.21-2.06s.07-1.51,.21-2.06h4.13c.14,.55,.21,1.24,.21,2.06s-.07,1.48-.21,2.06h1.55c.14,.55,.21,1.24,.21,2.06s-.07,1.48-.21,2.06c.14,.55,.21,1.24,.21,2.06Z"/><path d="M56.7,48.94h5.16c.14,.55,.21,1.24,.21,2.06s-.07,1.48-.21,2.06h-7.22c-.14-.58-.2-1.27-.2-2.06s.07-1.51,.2-2.06h-2.06c-.14-.58-.21-1.27-.21-2.06s.07-1.51,.21-2.06c-.14-.58-.21-1.27-.21-2.06s.07-1.51,.21-2.06h3.09c-.14-.58-.21-1.27-.21-2.06s.07-1.51,.21-2.06h6.19c.14,.55,.21,1.24,.21,2.06s-.07,1.48-.21,2.06h-5.16c.14,.55,.21,1.24,.21,2.06s-.07,1.48-.21,2.06c.14,.55,.21,1.24,.21,2.06s-.07,1.48-.21,2.06Zm-2.06,12.37h7.22c.14,.55,.21,1.24,.21,2.06s-.07,1.48-.21,2.06h-7.22c-.14-.58-.2-1.27-.2-2.06s.07-1.51,.2-2.06Zm13.09-10.31c0,.79-.07,1.48-.21,2.06,.14,.55,.21,1.24,.21,2.06s-.07,1.48-.21,2.06h-1.55c.14,.55,.21,1.24,.21,2.06s-.07,1.48-.21,2.06h-4.12c-.14-.58-.21-1.27-.21-2.06s.07-1.51,.21-2.06h1.55c-.14-.58-.21-1.27-.21-2.06s.07-1.51,.21-2.06c-.14-.58-.21-1.27-.21-2.06s.07-1.51,.21-2.06h-1.55c-.14-.58-.21-1.27-.21-2.06s.07-1.51,.21-2.06c-.14-.58-.21-1.27-.21-2.06s.07-1.51,.21-2.06h4.12c.14,.55,.21,1.24,.21,2.06s-.07,1.48-.21,2.06h1.55c.14,.55,.21,1.24,.21,2.06s-.07,1.48-.21,2.06c.14,.55,.21,1.24,.21,2.06Z"/><path d="M78.3,59.25c0,.79-.07,1.48-.21,2.06h-2.58c-.14-.58-.2-1.27-.2-2.06s.07-1.51,.2-2.06h-1.55c-.14-.58-.21-1.27-.21-2.06s.07-1.51,.21-2.06c-.14-.58-.21-1.27-.21-2.06s.07-1.51,.21-2.06c-.14-.58-.21-1.27-.21-2.06s.07-1.51,.21-2.06h1.55c-.14-.58-.2-1.27-.2-2.06s.07-1.51,.2-2.06h2.58c.14,.55,.21,1.24,.21,2.06s-.07,1.48-.21,2.06c.14,.55,.21,1.24,.21,2.06s-.07,1.48-.21,2.06c.14,.55,.21,1.24,.21,2.06s-.07,1.48-.21,2.06c.14,.55,.21,1.24,.21,2.06s-.07,1.48-.21,2.06c.14,.55,.21,1.24,.21,2.06Zm4.95-18.56h-5.16c-.14-.58-.21-1.27-.21-2.06s.07-1.51,.21-2.06h5.16c.14,.55,.21,1.24,.21,2.06s-.07,1.48-.21,2.06Zm-5.16,20.62h5.16c.14,.55,.21,1.24,.21,2.06s-.07,1.48-.21,2.06h-5.16c-.14-.58-.21-1.27-.21-2.06s.07-1.51,.21-2.06Zm9.48-10.31c0,.79-.07,1.48-.21,2.06,.14,.55,.21,1.24,.21,2.06s-.07,1.48-.21,2.06h-1.55c.14,.55,.21,1.24,.21,2.06s-.07,1.48-.21,2.06h-2.58c-.14-.58-.21-1.27-.21-2.06s.07-1.51,.21-2.06c-.14-.58-.21-1.27-.21-2.06s.07-1.51,.21-2.06c-.14-.58-.21-1.27-.21-2.06s.07-1.51,.21-2.06c-.14-.58-.21-1.27-.21-2.06s.07-1.51,.21-2.06c-.14-.58-.21-1.27-.21-2.06s.07-1.51,.21-2.06h2.58c.14,.55,.21,1.24,.21,2.06s-.07,1.48-.21,2.06h1.55c.14,.55,.21,1.24,.21,2.06s-.07,1.48-.21,2.06c.14,.55,.21,1.24,.21,2.06Z"/></svg>