<?xml version="1.0" encoding="UTF-8"?><svg id="a" xmlns="http://www.w3.org/2000/svg" width="100" height="100" viewBox="0 0 100 100"><path d="M9.04,63.61c-.2,0-.38-.06-.52-.17s-.22-.26-.22-.43c0-.37,.24-.63,.73-.78,.92-.23,1.69-.45,2.31-.67,.62-.22,1.09-.51,1.4-.89s.48-.91,.48-1.6v-15.94c0-.66-.18-1.16-.54-1.49-.36-.33-.81-.57-1.36-.71-.55-.14-1.14-.26-1.77-.35-.26-.03-.51-.11-.76-.24-.24-.13-.37-.35-.37-.67,0-.29,.12-.51,.37-.67s.54-.25,.89-.28c1.56-.17,2.95-.45,4.19-.82s2.48-.98,3.71-1.81c.03-.03,.08-.05,.15-.07s.15-.02,.24-.02c.17,0,.34,.04,.5,.11,.16,.07,.24,.18,.24,.32-.03,.37-.07,.81-.13,1.3-.06,.49-.09,1.09-.09,1.81v19.69c0,.63,.17,1.12,.5,1.47,.33,.35,.81,.63,1.45,.84,.63,.22,1.42,.45,2.38,.71,.23,.06,.42,.14,.56,.26,.14,.12,.22,.27,.22,.48,0,.38-.22,.56-.65,.56-.69,0-1.45-.01-2.29-.04-.84-.03-1.66-.06-2.46-.09-.81-.03-1.54-.04-2.2-.04s-1.44,.01-2.25,.04c-.81,.03-1.62,.06-2.44,.11-.82,.04-1.58,.06-2.27,.06Z"/><path d="M37.89,64.13c-1.81,0-3.4-.36-4.75-1.08s-2.4-1.75-3.15-3.09c-.75-1.34-1.12-2.94-1.12-4.82,0-1.58,.18-3.03,.54-4.34,.36-1.31,.81-2.47,1.36-3.48,.55-1.01,1.1-1.88,1.66-2.61,.56-.73,1.03-1.3,1.4-1.71,.69-.78,1.59-1.6,2.7-2.48,1.11-.88,2.38-1.72,3.82-2.53,1.44-.81,2.98-1.47,4.62-1.99,.4-.11,.77-.17,1.1-.15,.33,.01,.5,.11,.5,.28-.06,.29-.22,.52-.48,.69-.26,.17-.58,.35-.95,.52-1.7,.78-3.13,1.66-4.3,2.66s-2.25,2.24-3.26,3.73c-.4,.66-.89,1.58-1.47,2.74s-1.07,2.48-1.49,3.95c-.42,1.47-.63,2.98-.63,4.53,.03,1.58,.28,2.92,.75,4.02,.48,1.09,1.08,1.92,1.82,2.48,.73,.56,1.47,.84,2.22,.84,.98,.03,1.81-.4,2.5-1.27,.69-.88,1.04-2.18,1.04-3.91,0-.89-.16-1.71-.48-2.44-.32-.73-.73-1.33-1.23-1.79s-1.06-.69-1.66-.69c-.49,0-.91,.04-1.25,.11-.34,.07-.69,.19-1.04,.37-.46,.2-.73,.18-.82-.06s0-.51,.26-.8c.2-.2,.38-.37,.52-.52,.14-.14,.32-.29,.52-.43,.43-.32,1.08-.68,1.94-1.1,.86-.42,1.69-.63,2.46-.63,1.04,0,2.01,.26,2.91,.78,.91,.52,1.64,1.22,2.2,2.09,.56,.88,.84,1.86,.84,2.96,0,1.21-.24,2.36-.73,3.46-.49,1.09-1.17,2.07-2.05,2.94-.88,.86-1.9,1.54-3.07,2.03s-2.43,.73-3.78,.73Z"/><path d="M59.44,64.09c-1.64,0-3.07-.4-4.28-1.21s-2.21-1.88-3-3.22c-.79-1.34-1.38-2.81-1.77-4.43s-.58-3.21-.58-4.79,.19-3.3,.58-4.97,.99-3.2,1.79-4.6,1.86-2.52,3.15-3.37,2.82-1.27,4.58-1.27c1.64,0,3.07,.4,4.28,1.21,1.21,.81,2.21,1.88,3,3.22,.79,1.34,1.38,2.81,1.77,4.41s.58,3.17,.58,4.73c0,1.64-.19,3.3-.58,4.97-.39,1.67-.99,3.21-1.79,4.62-.81,1.41-1.84,2.55-3.11,3.41-1.27,.86-2.81,1.3-4.62,1.3Zm.69-1.68c1.01,0,1.81-.55,2.42-1.66,.6-1.11,1.04-2.56,1.32-4.36s.41-3.72,.41-5.77c0-1.56-.1-3.09-.3-4.6-.2-1.51-.52-2.88-.95-4.1s-.97-2.2-1.6-2.91c-.63-.72-1.37-1.08-2.2-1.08-1.01,0-1.81,.55-2.4,1.66-.59,1.11-1.02,2.56-1.3,4.34-.27,1.79-.41,3.7-.41,5.74,0,1.56,.11,3.09,.32,4.6,.22,1.51,.53,2.89,.95,4.12s.93,2.22,1.56,2.94c.62,.72,1.35,1.08,2.18,1.08Z"/><path d="M81.59,64.09c-1.64,0-3.07-.4-4.28-1.21s-2.21-1.88-3-3.22c-.79-1.34-1.38-2.81-1.77-4.43s-.58-3.21-.58-4.79,.19-3.3,.58-4.97,.99-3.2,1.79-4.6,1.86-2.52,3.15-3.37,2.82-1.27,4.58-1.27c1.64,0,3.07,.4,4.28,1.21,1.21,.81,2.21,1.88,3,3.22,.79,1.34,1.38,2.81,1.77,4.41s.58,3.17,.58,4.73c0,1.64-.19,3.3-.58,4.97-.39,1.67-.99,3.21-1.79,4.62-.81,1.41-1.84,2.55-3.11,3.41-1.27,.86-2.81,1.3-4.62,1.3Zm.69-1.68c1.01,0,1.81-.55,2.42-1.66,.6-1.11,1.04-2.56,1.32-4.36s.41-3.72,.41-5.77c0-1.56-.1-3.09-.3-4.6-.2-1.51-.52-2.88-.95-4.1s-.97-2.2-1.6-2.91c-.63-.72-1.37-1.08-2.2-1.08-1.01,0-1.81,.55-2.4,1.66-.59,1.11-1.02,2.56-1.3,4.34-.27,1.79-.41,3.7-.41,5.74,0,1.56,.11,3.09,.32,4.6,.22,1.51,.53,2.89,.95,4.12s.93,2.22,1.56,2.94c.62,.72,1.35,1.08,2.18,1.08Z"/></svg>