<?xml version="1.0" encoding="UTF-8"?><svg id="a" xmlns="http://www.w3.org/2000/svg" width="100" height="100" viewBox="0 0 100 100"><path d="M19.63,41.37c-.26,.14-.95,.45-2.07,.93-.19,.07-.49,.19-.89,.36-.41,.17-.74,.32-1,.47v-4.43c2.86-1.48,4.61-2.55,5.25-3.22h4.68v28.96h-5.97v-23.06Z"/><path d="M32.02,62.51c-1.25-1.58-1.88-3.77-1.88-6.56,0-1.55,.28-2.93,.84-4.13,.56-1.2,1.4-2.08,2.52-2.63-.84-.62-1.53-1.48-2.07-2.59-.55-1.11-.82-2.45-.82-4.02,0-2.36,.65-4.2,1.95-5.52,1.3-1.32,3.14-1.98,5.52-1.98s4.21,.66,5.49,1.97c1.27,1.31,1.91,3.12,1.91,5.43,0,1.64-.26,3.03-.77,4.17-.51,1.13-1.2,1.98-2.05,2.56,1.12,.55,1.96,1.45,2.52,2.7,.56,1.25,.84,2.69,.84,4.31,0,2.72-.63,4.84-1.89,6.38-1.26,1.54-3.28,2.31-6.04,2.31s-4.81-.79-6.06-2.38Zm7.47-2.79c.3-.51,.48-1.07,.54-1.68,.06-.61,.09-1.36,.09-2.27,0-1.24-.14-2.22-.41-2.93-.27-.71-.82-1.07-1.63-1.07s-1.38,.4-1.64,1.2c-.26,.8-.39,1.9-.39,3.31,0,1.19,.13,2.19,.39,3,.26,.81,.81,1.22,1.64,1.22,.64,0,1.11-.26,1.41-.77Zm.38-17c0-.98-.15-1.75-.47-2.32-.31-.57-.75-.86-1.32-.86s-1.05,.28-1.38,.84-.48,1.33-.48,2.31c0,2.91,.62,4.36,1.86,4.36s1.79-1.44,1.79-4.33Z"/><path d="M51.04,63.01c-1.11-1.23-1.66-3.1-1.66-5.63v-.47h5.58c0,1.29,.11,2.18,.34,2.68,.23,.5,.72,.75,1.48,.75,.55,0,.95-.17,1.2-.5,.25-.33,.42-.89,.52-1.68s.14-1.98,.14-3.58v-2.57c-.31,.5-.8,.89-1.47,1.18-.67,.28-1.42,.43-2.25,.43-2.1,0-3.64-.81-4.63-2.43-.99-1.62-1.48-3.71-1.48-6.26,0-3.17,.63-5.61,1.88-7.31,1.25-1.7,3.27-2.56,6.06-2.56s4.75,.8,6.04,2.41c1.29,1.61,1.93,3.87,1.93,6.77v10.8c0,3.12-.58,5.54-1.75,7.24s-3.24,2.56-6.22,2.56c-2.69,0-4.59-.61-5.7-1.84Zm7.6-15.1v-4.72c0-1.14-.13-2.05-.39-2.72-.26-.67-.76-1-1.5-1s-1.26,.37-1.48,1.13-.34,2.01-.34,3.77c0,1.17,.04,2.05,.11,2.66s.24,1.1,.5,1.47,.69,.55,1.29,.55c.72,0,1.32-.38,1.82-1.14Z"/><path d="M70.61,62.71c-1.36-1.5-2.04-3.51-2.04-6.04v-13.12c0-2.65,.66-4.72,1.98-6.24,1.32-1.51,3.29-2.27,5.92-2.27s4.59,.76,5.9,2.27c1.31,1.51,1.97,3.59,1.97,6.24v13.12c0,2.5-.69,4.51-2.06,6.02-1.37,1.51-3.31,2.27-5.81,2.27s-4.51-.75-5.86-2.25Zm7.31-4c.23-.62,.34-1.35,.34-2.18v-12.83c0-.95-.1-1.75-.3-2.38-.2-.63-.7-.95-1.48-.95s-1.28,.31-1.48,.93c-.2,.62-.3,1.42-.3,2.4v12.83c0,2.07,.6,3.11,1.79,3.11,.74,0,1.22-.31,1.45-.93Z"/></svg>