<?xml version="1.0" encoding="UTF-8"?><svg id="a" xmlns="http://www.w3.org/2000/svg" width="100" height="100" viewBox="0 0 100 100"><path d="M10.17,36.72h7.86v26.2h-5.77v-20.67h-2.09v-5.53Z"/><path d="M30.68,54.74c-1.26,0-2.48-.36-3.66-1.07s-2.14-1.71-2.9-2.98c-.76-1.28-1.15-2.75-1.15-4.41,0-2.11,.47-3.9,1.4-5.37,.94-1.48,2.14-2.6,3.62-3.36,1.48-.76,3.03-1.15,4.66-1.15,1.92,0,3.64,.43,5.16,1.28,1.52,.86,2.72,2.03,3.62,3.52,.9,1.49,1.34,3.17,1.34,5.04,0,2.16-.38,4.1-1.13,5.83-.75,1.73-1.75,3.27-3,4.64-1.25,1.37-2.64,2.61-4.17,3.73-1.53,1.12-3.07,2.17-4.62,3.14l-3.83-4.15c2.11-.87,3.97-1.86,5.57-2.98,1.61-1.12,2.86-2.29,3.75-3.52,.89-1.23,1.34-2.43,1.34-3.62l1.42,.16c-.71,1.66-1.62,2.95-2.73,3.87-1.11,.92-2.67,1.38-4.7,1.38Zm2.21-4.82c1.11,0,2.04-.36,2.81-1.07,.76-.71,1.15-1.51,1.15-2.41v-.91c0-.68-.17-1.33-.51-1.94-.34-.61-.81-1.1-1.4-1.48-.59-.38-1.27-.57-2.03-.57s-1.41,.17-2.02,.49-1.08,.81-1.42,1.44c-.34,.63-.51,1.41-.51,2.33s.18,1.65,.53,2.27c.35,.62,.83,1.08,1.42,1.38,.59,.3,1.26,.45,2,.45Z"/><path d="M45.49,62.92c1.63-1.66,3.2-3.26,4.7-4.8,1.5-1.54,2.85-3.03,4.05-4.46,1.2-1.44,2.15-2.83,2.84-4.17,.7-1.34,1.05-2.65,1.05-3.91,0-.55-.1-1.05-.3-1.5s-.47-.83-.83-1.15-.78-.56-1.26-.73-1.04-.26-1.64-.26-1.15,.09-1.62,.26-.87,.4-1.19,.69c-.31,.29-.56,.6-.73,.95-.17,.34-.26,.7-.26,1.07,0,.84,.14,1.59,.41,2.23,.28,.65,.65,1.22,1.13,1.72l-3.52,3.2c-.76-.37-1.42-.99-1.96-1.86-.54-.87-.95-1.78-1.22-2.75-.28-.96-.42-1.76-.42-2.39,0-1.45,.4-2.83,1.21-4.15s1.98-2.4,3.52-3.24c1.54-.84,3.42-1.26,5.63-1.26,1.82,0,3.4,.41,4.74,1.23,1.34,.82,2.39,1.89,3.14,3.22,.75,1.33,1.13,2.75,1.13,4.25,0,1.18-.18,2.33-.55,3.44-.37,1.11-.88,2.19-1.52,3.26-.65,1.07-1.38,2.12-2.19,3.16s-1.66,2.1-2.53,3.18l-2.61-.75h9.72v5.53h-18.93Z"/><path d="M78.81,62.96c-1.5,0-2.92-.26-4.25-.79s-2.5-1.34-3.52-2.43c-1.02-1.09-1.81-2.48-2.39-4.15-.58-1.67-.87-3.64-.87-5.91,0-2.53,.28-4.64,.83-6.34s1.33-3.06,2.31-4.09c.99-1.03,2.15-1.76,3.5-2.19,1.34-.44,2.81-.65,4.39-.65s2.92,.26,4.25,.79c1.33,.53,2.5,1.34,3.52,2.43,1.01,1.09,1.81,2.48,2.39,4.15,.58,1.67,.87,3.64,.87,5.91s-.29,4.36-.87,6.05c-.58,1.69-1.38,3.06-2.41,4.13s-2.2,1.85-3.52,2.35c-1.32,.5-2.73,.75-4.23,.75Zm-.04-5.49c1.32,0,2.34-.35,3.08-1.05,.74-.7,1.26-1.65,1.56-2.87,.3-1.21,.45-2.55,.45-4.03s-.15-2.74-.45-3.87c-.3-1.13-.82-2.03-1.56-2.71s-1.76-1.01-3.08-1.01-2.31,.34-3.04,1.03c-.74,.68-1.25,1.61-1.54,2.77-.29,1.16-.43,2.46-.43,3.91s.14,2.77,.43,3.95c.29,1.19,.8,2.13,1.54,2.83,.74,.7,1.75,1.05,3.04,1.05Z"/></svg>